<svg width="1103" height="1018" viewBox="0 0 1103 1018" fill="none" xmlns="http://www.w3.org/2000/svg">
<g filter="url(#filter0_d_1_365)">
<path d="M914.24 945.145H895.25V57.0845C895.25 36.668 877.354 20.1536 855.28 20.1536H247.947C225.89 20.1536 207.994 36.668 207.994 57.0845V945.145H189.004C178.786 945.145 170.509 952.761 170.509 962.2V980.366C170.509 989.775 178.786 997.406 189.004 997.406H384.727C394.902 997.406 403.181 989.775 403.181 980.366V962.2C403.181 952.761 394.902 945.145 384.727 945.145H301.648V673.864H801.611V945.145H718.499C708.293 945.145 700.034 952.761 700.034 962.2V980.366C700.034 989.775 708.293 997.406 718.499 997.406H914.24C924.426 997.406 932.719 989.775 932.719 980.366V962.2C932.719 952.761 924.426 945.145 914.24 945.145Z" fill="url(#paint0_linear_1_365)"/>
<path d="M393.897 297.639C343.463 297.639 302.628 259.876 302.628 213.39C302.628 166.81 343.463 128.999 393.897 128.999C444.279 128.999 485.166 166.81 485.166 213.39C485.166 259.876 444.279 297.639 393.897 297.639ZM431.412 178.264C431.412 159.094 414.6 143.568 393.897 143.568C373.142 143.568 356.331 159.094 356.331 178.264C356.331 197.385 373.142 212.911 393.897 212.911C414.6 212.911 431.412 197.385 431.412 178.264ZM369.925 227.192C369.925 217.656 361.52 209.844 351.142 209.844C340.765 209.844 332.359 217.656 332.359 227.192C332.359 236.729 340.765 244.589 351.142 244.589C361.52 244.589 369.925 236.729 369.925 227.192Z" fill="#030405"/>
<path d="M356.331 178.264C356.331 159.094 373.142 143.568 393.897 143.568C414.6 143.568 431.412 159.094 431.412 178.264C431.412 197.385 414.6 212.911 393.897 212.911C373.142 212.911 356.331 197.385 356.331 178.264Z" fill="white"/>
<path d="M351.142 209.844C361.52 209.844 369.925 217.656 369.925 227.192C369.925 236.729 361.52 244.589 351.142 244.589C340.765 244.589 332.359 236.729 332.359 227.192C332.359 217.656 340.765 209.844 351.142 209.844Z" fill="white"/>
<path d="M393.897 352.702C310.567 352.702 243.062 290.307 243.062 213.39C243.062 136.379 310.567 74.0311 393.897 74.0311C477.176 74.0311 544.733 136.379 544.733 213.39C544.733 290.307 477.176 352.702 393.897 352.702ZM393.897 297.639C444.279 297.639 485.166 259.876 485.166 213.39C485.166 166.81 444.279 128.999 393.897 128.999C343.463 128.999 302.628 166.81 302.628 213.39C302.628 259.876 343.463 297.639 393.897 297.639Z" fill="white"/>
<path d="M805.321 213.392C805.321 259.926 764.486 297.641 714.052 297.641C663.67 297.641 622.782 259.926 622.782 213.392C622.782 166.764 663.67 129.001 714.052 129.001C764.486 129.001 805.321 166.764 805.321 213.392ZM563.216 213.392C563.216 290.261 630.773 352.656 714.052 352.656C797.382 352.656 864.887 290.261 864.887 213.392C864.887 136.429 797.382 74.0818 714.052 74.0818C630.773 74.0818 563.216 136.429 563.216 213.392Z" fill="white"/>
<path d="M756.806 209.846C746.429 209.846 738.023 217.658 738.023 227.243C738.023 236.731 746.429 244.59 756.806 244.59C767.184 244.59 775.59 236.731 775.59 227.243C775.59 217.658 767.184 209.846 756.806 209.846Z" fill="white"/>
<path d="M751.618 178.217C751.618 159.144 734.807 143.617 714.052 143.617C693.349 143.617 676.538 159.144 676.538 178.217C676.538 197.434 693.349 212.913 714.052 212.913C734.807 212.913 751.618 197.434 751.618 178.217Z" fill="white"/>
<path d="M622.782 213.392C622.782 259.926 663.67 297.641 714.052 297.641C764.486 297.641 805.321 259.926 805.321 213.392C805.321 166.764 764.486 129.001 714.052 129.001C663.67 129.001 622.782 166.764 622.782 213.392ZM676.538 178.217C676.538 159.144 693.349 143.617 714.052 143.617C734.807 143.617 751.618 159.144 751.618 178.217C751.618 197.434 734.807 212.913 714.052 212.913C693.349 212.913 676.538 197.434 676.538 178.217ZM738.023 227.243C738.023 217.658 746.43 209.846 756.807 209.846C767.184 209.846 775.59 217.658 775.59 227.243C775.59 236.731 767.184 244.59 756.807 244.59C746.43 244.59 738.023 236.731 738.023 227.243Z" fill="#030405"/>
<path d="M680.221 383.676V395.661H398.757V383.676H541.628H680.221Z" fill="#C8C7C7"/>
<path d="M596.774 445.827L622.936 411.309L680.221 513.559V395.661V383.676H716.806V453.306C716.806 453.306 715.664 536.935 669.569 597.074C669.569 597.074 665.977 592.106 658.42 585.183C641.29 569.478 603.771 543.801 541.628 543.801C478.757 543.801 441.093 570.073 424.233 585.74C417.091 592.356 413.686 597.074 413.686 597.074C367.592 536.935 366.471 453.306 366.471 453.306V383.676H398.757V395.661V513.559L456.063 411.309L482.204 445.827L510.047 415.24L541.628 448.589L568.952 415.24L596.774 445.827Z" fill="#1E1F1D"/>
<path d="M424.234 585.74C448.505 615.617 485.319 638.476 541.13 638.476C597.231 638.476 634.127 615.368 658.378 585.203L658.42 585.183C665.977 592.106 669.57 597.074 669.57 597.074C643.699 630.863 603.626 657.231 541.628 657.231C479.609 657.231 439.557 630.863 413.686 597.074C413.686 597.074 417.091 592.356 424.234 585.74Z" fill="#9C1C1B"/>
<path d="M456.063 411.309L398.757 513.559V395.661H680.221V513.559L622.936 411.309L596.774 445.827L568.952 415.24L541.628 448.589L510.047 415.24L482.204 445.827L456.063 411.309Z" fill="white"/>
<path d="M541.13 638.476C485.318 638.476 448.505 615.617 424.233 585.74C441.093 570.073 478.757 543.801 541.628 543.801C603.771 543.801 641.29 569.478 658.42 585.183L658.378 585.203C634.127 615.368 597.231 638.476 541.13 638.476Z" fill="#E43333"/>
</g>
<defs>
<filter id="filter0_d_1_365" x="-3.21973" y="0.0322266" width="1109.67" height="1025.5" filterUnits="userSpaceOnUse" color-interpolation-filters="sRGB">
<feFlood flood-opacity="0" result="BackgroundImageFix"/>
<feColorMatrix in="SourceAlpha" type="matrix" values="0 0 0 0 0 0 0 0 0 0 0 0 0 0 0 0 0 0 127 0" result="hardAlpha"/>
<feOffset dy="4"/>
<feGaussianBlur stdDeviation="2"/>
<feComposite in2="hardAlpha" operator="out"/>
<feColorMatrix type="matrix" values="0 0 0 0 0 0 0 0 0 0 0 0 0 0 0 0 0 0 0.25 0"/>
<feBlend mode="normal" in2="BackgroundImageFix" result="effect1_dropShadow_1_365"/>
<feBlend mode="normal" in="SourceGraphic" in2="effect1_dropShadow_1_365" result="shape"/>
</filter>
<linearGradient id="paint0_linear_1_365" x1="358.174" y1="1055.38" x2="722.035" y2="-27.0195" gradientUnits="userSpaceOnUse">
<stop stop-color="#97C11E"/>
<stop offset="0.1091" stop-color="#A4C622"/>
<stop offset="0.2742" stop-color="#BED019"/>
<stop offset="0.4481" stop-color="#D0D70F"/>
<stop offset="0.6218" stop-color="#DADA08"/>
<stop offset="0.7939" stop-color="#DEDC06"/>
</linearGradient>
</defs>
</svg>
