<svg width="1000" height="1000" viewBox="0 0 1000 1000" fill="none" xmlns="http://www.w3.org/2000/svg">
<g filter="url(#filter0_d_1_297)">
<g clip-path="url(#clip0_1_297)">
<path d="M345.133 96.793C345.133 106.884 336.906 115.111 326.814 115.111C316.684 115.111 308.456 106.884 308.456 96.793C308.456 86.6611 316.684 78.4341 326.814 78.4341C336.906 78.4341 345.133 86.6611 345.133 96.793Z" fill="white"/>
<path d="M420.675 375.616C429.509 286.66 413.299 220.237 403.207 189.396C386.186 204.148 364.019 213.104 339.783 213.104C286.248 213.104 242.722 169.579 242.722 116.043C242.722 62.5479 286.248 19.0225 339.783 19.0225C393.278 19.0225 436.804 62.5479 436.804 116.043C436.804 135.212 431.211 153.084 421.566 168.16C431.049 192.476 455.729 268.463 444.869 378.047L420.675 375.616ZM412.488 116.043C412.488 75.9624 379.864 43.3384 339.783 43.3384C299.662 43.3384 267.038 75.9624 267.038 116.043C267.038 156.164 299.662 188.788 339.783 188.788C379.864 188.788 412.488 156.164 412.488 116.043Z" fill="#98C01E"/>
<path d="M326.815 78.4341C316.684 78.4341 308.456 86.6611 308.456 96.793C308.456 106.884 316.684 115.111 326.815 115.111C336.906 115.111 345.133 106.884 345.133 96.793C345.133 86.6611 336.906 78.4341 326.815 78.4341ZM315.994 131.119C315.994 126.985 312.59 123.581 308.456 123.581C304.322 123.581 300.918 126.985 300.918 131.119C300.918 135.252 304.322 138.657 308.456 138.657C312.59 138.657 315.994 135.252 315.994 131.119ZM285.275 116.043C285.275 86.0127 309.713 61.5752 339.783 61.5752C369.814 61.5752 394.251 86.0127 394.251 116.043C394.251 146.114 369.814 170.551 339.783 170.551C309.713 170.551 285.275 146.114 285.275 116.043Z" fill="#1E1F1D"/>
<path d="M339.783 188.788C299.662 188.788 267.038 156.164 267.038 116.043C267.038 75.9624 299.662 43.3384 339.783 43.3384C379.864 43.3384 412.488 75.9624 412.488 116.043C412.488 156.164 379.864 188.788 339.783 188.788ZM394.251 116.043C394.251 86.0127 369.814 61.5752 339.783 61.5752C309.713 61.5752 285.275 86.0127 285.275 116.043C285.275 146.114 309.713 170.551 339.783 170.551C369.814 170.551 394.251 146.114 394.251 116.043Z" fill="white"/>
<path d="M300.918 131.119C300.918 126.985 304.322 123.581 308.456 123.581C312.59 123.581 315.994 126.985 315.994 131.119C315.994 135.252 312.59 138.657 308.456 138.657C304.322 138.657 300.918 135.252 300.918 131.119Z" fill="white"/>
<path d="M702.78 84.7563C702.78 78.1504 697.39 72.7202 690.784 72.7202C684.138 72.7202 678.748 78.1504 678.748 84.7563C678.748 91.4028 684.138 96.793 690.784 96.793C697.39 96.793 702.78 91.4028 702.78 84.7563ZM671.169 88.8496C671.169 86.6206 669.346 84.7563 667.076 84.7563C664.807 84.7563 662.942 86.6206 662.942 88.8496C662.942 91.1191 664.807 92.9834 667.076 92.9834C669.346 92.9834 671.169 91.1191 671.169 88.8496ZM651.838 96.793C651.838 78.9204 666.387 64.3716 684.219 64.3716C702.091 64.3716 716.64 78.9204 716.64 96.793C716.64 114.624 702.091 129.173 684.219 129.173C666.387 129.173 651.838 114.624 651.838 96.793Z" fill="#1E1F1D"/>
<path d="M684.219 47.3911C656.985 47.3911 634.817 69.5591 634.817 96.793C634.817 124.027 656.985 146.195 684.219 146.195C711.493 146.195 733.621 124.027 733.621 96.793C733.621 69.5591 711.493 47.3911 684.219 47.3911ZM610.501 96.793C610.501 56.1445 643.57 23.0752 684.219 23.0752C724.867 23.0752 757.937 56.1445 757.937 96.793C757.937 137.441 724.867 170.511 684.219 170.511C671.169 170.511 658.931 167.066 648.271 161.068C635.019 188.383 605.719 258.859 619.214 324.876L595.385 329.74C579.377 251.321 615.769 170.876 628.859 145.303C617.472 132.335 610.501 115.354 610.501 96.793Z" fill="#98C01E"/>
<path d="M684.219 64.3716C666.387 64.3716 651.838 78.9204 651.838 96.793C651.838 114.625 666.387 129.173 684.219 129.173C702.091 129.173 716.64 114.625 716.64 96.793C716.64 78.9204 702.091 64.3716 684.219 64.3716ZM684.219 146.195C656.985 146.195 634.817 124.027 634.817 96.793C634.817 69.5591 656.985 47.3911 684.219 47.3911C711.493 47.3911 733.621 69.5591 733.621 96.793C733.621 124.027 711.493 146.195 684.219 146.195Z" fill="white"/>
<path d="M667.076 84.7563C669.346 84.7563 671.169 86.6206 671.169 88.8496C671.169 91.1191 669.346 92.9834 667.076 92.9834C664.807 92.9834 662.942 91.1191 662.942 88.8496C662.942 86.6206 664.807 84.7563 667.076 84.7563Z" fill="white"/>
<path d="M690.784 72.7202C697.39 72.7202 702.78 78.1504 702.78 84.7563C702.78 91.4028 697.39 96.793 690.784 96.793C684.138 96.793 678.748 91.4028 678.748 84.7563C678.748 78.1504 684.138 72.7202 690.784 72.7202Z" fill="white"/>
<path d="M757.72 940.752H744.222V257.397C744.222 241.687 731.504 228.98 715.815 228.98H284.185C268.51 228.98 255.789 241.687 255.789 257.397V940.752H242.294C235.03 940.752 229.15 946.613 229.15 953.877V967.854C229.15 975.095 235.03 980.967 242.294 980.967H381.393C388.626 980.967 394.51 975.095 394.51 967.854V953.877C394.51 946.613 388.626 940.752 381.393 940.752H322.349V732.003H677.672V940.752H618.606C611.35 940.752 605.483 946.613 605.483 953.877V967.854C605.483 975.095 611.35 980.967 618.606 980.967H757.72C764.959 980.967 770.85 975.095 770.85 967.854V953.877C770.85 946.613 764.959 940.752 757.72 940.752Z" fill="url(#paint0_linear_1_297)"/>
<path d="M643.679 484.85C648.303 490.476 652.585 496.398 656.503 502.548C617.119 543.822 561.54 569.539 499.993 569.539C438.424 569.539 382.868 543.822 343.462 502.548C347.38 496.398 351.662 490.476 356.264 484.85C391.911 523.732 443.094 548.173 499.993 548.173C556.871 548.173 608.076 523.732 643.679 484.85Z" fill="#A3201B"/>
<path d="M499.993 416.629C557.941 416.629 609.671 443.211 643.679 484.85C608.076 523.732 556.871 548.173 499.993 548.173C443.094 548.173 391.911 523.732 356.264 484.85C390.271 443.211 442.023 416.629 499.993 416.629Z" fill="#E32D28"/>
<path d="M716.387 353.146C716.387 411.094 693.608 463.711 656.503 502.548C652.585 496.398 648.303 490.476 643.679 484.85C609.671 443.211 557.941 416.629 499.993 416.629C442.023 416.629 390.271 443.211 356.264 484.85C351.662 490.476 347.38 496.398 343.462 502.548C306.379 463.711 283.601 411.094 283.601 353.146C283.601 338.135 285.104 323.443 288.042 309.343C339.248 357.656 415.19 388.247 499.993 388.247C584.728 388.247 660.671 357.656 711.922 309.343C714.838 323.443 716.387 338.135 716.387 353.146Z" fill="#1E1F1D"/>
</g>
</g>
<defs>
<filter id="filter0_d_1_297" x="-4" y="0" width="1008" height="1008" filterUnits="userSpaceOnUse" color-interpolation-filters="sRGB">
<feFlood flood-opacity="0" result="BackgroundImageFix"/>
<feColorMatrix in="SourceAlpha" type="matrix" values="0 0 0 0 0 0 0 0 0 0 0 0 0 0 0 0 0 0 127 0" result="hardAlpha"/>
<feOffset dy="4"/>
<feGaussianBlur stdDeviation="2"/>
<feComposite in2="hardAlpha" operator="out"/>
<feColorMatrix type="matrix" values="0 0 0 0 0 0 0 0 0 0 0 0 0 0 0 0 0 0 0.25 0"/>
<feBlend mode="normal" in2="BackgroundImageFix" result="effect1_dropShadow_1_297"/>
<feBlend mode="normal" in="SourceGraphic" in2="effect1_dropShadow_1_297" result="shape"/>
</filter>
<linearGradient id="paint0_linear_1_297" x1="362.522" y1="1025.58" x2="660.459" y2="207" gradientUnits="userSpaceOnUse">
<stop stop-color="#97C11E"/>
<stop offset="0.1091" stop-color="#A4C622"/>
<stop offset="0.2742" stop-color="#BED019"/>
<stop offset="0.4481" stop-color="#D0D70F"/>
<stop offset="0.6218" stop-color="#DADA08"/>
<stop offset="0.7939" stop-color="#DEDC06"/>
</linearGradient>
<clipPath id="clip0_1_297">
<rect width="541.699" height="961.944" fill="white" transform="translate(229.15 19.0225)"/>
</clipPath>
</defs>
</svg>
