<svg width="999" height="1000" viewBox="0 0 999 1000" fill="none" xmlns="http://www.w3.org/2000/svg">
<g filter="url(#filter0_d_1_264)">
<g clip-path="url(#clip0_1_264)">
<path d="M692.72 61.6108L625.173 103.2L652.168 166.517H652.188C651.899 170.439 650.727 173.131 648.649 173.977C642.92 176.304 632.498 164.094 625.346 146.693L620.942 137.022L618.654 131.984L615.713 125.351L603.599 98.124L629.922 80.1655L636.133 75.8969L640.843 72.6284L650.207 66.0717L669.762 52.4585L698.411 33L715.005 47.1899L723.465 54.3427L727.444 57.7461L730.271 60.0727L752.69 78.685L775.168 97.3164L780.764 101.951L783.648 104.335L788.166 108.219L806.566 123.947L803.106 144.405L801.433 154.461L800.491 160.672L796.723 185.553L792.973 210.433L791.107 222.874L787.531 243.812L775.898 254.58L772.995 257.272L771.361 258.81L768.131 261.906L755.229 274.231L729.406 298.919L677.761 348.257C672.415 353.814 666.608 359.39 660.417 364.87C632.518 389.424 603.772 374.407 601.58 350.988L746.941 230.488L780.744 138.771L692.72 61.6108Z" fill="#4081C2"/>
<path d="M652.168 166.517L625.173 103.2L692.72 61.6108L780.744 138.772L746.941 230.488L601.58 350.988C600.58 340.278 605.138 327.818 617.886 316.57C624.096 311.129 630.345 306.072 636.517 301.477L691.989 256.483L719.734 233.949L733.598 222.681L737.059 219.855L738.809 218.47C739.001 218.355 739.077 218.297 739.231 218.201L740.962 217.163L741.462 215.875L741.731 215.24L741.865 214.894L742.212 213.433L745.076 201.223L750.845 176.708L756.613 152.212L758.074 146.097C758.209 145.443 758.209 145.521 758.267 145.29L758.44 144.809L758.747 143.809L760.094 139.56L756.806 135.811L755.921 134.811L753.402 132.35L748.211 127.254L727.311 106.892L706.468 86.5298L703.853 83.9531L703.295 83.3955L703.025 83.0879L702.43 82.4922L700.045 79.9541L695.027 74.6089L685.106 79.8383C684.586 80.1269 682.529 81.3383 680.952 82.2422L676.03 85.1455L666.128 90.9135L656.226 96.7011L651.303 99.5854L650.054 100.335L649.322 100.72L647.861 101.508L635.613 108.219L639.632 120.274L640.709 123.447L642.42 128.215L646.054 138.195C650.572 149.231 652.688 159.73 652.188 166.517H652.168Z" fill="#125B95"/>
<path d="M158.742 108.219L140.361 123.947L143.802 144.405L145.475 154.461L146.436 160.672L150.186 185.553L153.936 210.433L155.82 222.874L159.338 243.812L171.01 254.58L173.932 257.272L175.566 258.81L178.778 261.906L191.679 274.231L217.502 298.919L269.167 348.257C274.493 353.814 280.3 359.39 286.53 364.87C314.429 389.424 343.194 374.407 345.347 350.988H345.328L199.986 230.488L166.184 138.771L254.208 61.6108L321.736 103.2L294.759 166.517H294.721C295.009 170.459 296.182 173.131 298.278 173.977C304.027 176.304 314.41 164.094 321.582 146.693L325.966 137.022L328.273 131.984L331.234 125.351L343.348 98.124L316.986 80.1655L310.795 75.8969L306.085 72.6284L296.701 66.0717L277.147 52.4585L248.497 33L231.923 47.1899L223.443 54.3427L219.463 57.7461L216.656 60.0727L194.217 78.685L171.798 97.3164L166.164 101.951L163.261 104.335L158.742 108.219Z" fill="#4081C2"/>
<path d="M300.874 138.195C296.336 149.231 294.221 159.73 294.721 166.517H294.759L321.736 103.2L254.208 61.6108L166.184 138.772L199.986 230.488L345.328 350.988H345.347C346.347 340.278 341.771 327.818 329.042 316.57C322.812 311.129 316.564 306.072 310.391 301.477L254.919 256.483L227.193 233.949L213.311 222.681L209.85 219.855L208.1 218.47C207.927 218.355 207.831 218.297 207.696 218.201L205.985 217.163L205.446 215.875L205.177 215.24L205.062 214.894L204.735 213.433L201.831 201.223L196.064 176.708L190.295 152.212L188.853 146.097C188.718 145.443 188.718 145.521 188.642 145.29L188.488 144.809L188.161 143.809L186.834 139.56L190.102 135.811L190.987 134.811L193.506 132.35L198.717 127.254L219.598 106.892L240.46 86.5298L243.056 83.9531L243.633 83.3955L243.902 83.0879L244.479 82.4922L246.882 79.9541L251.9 74.6089L261.803 79.8383C262.322 80.1269 264.398 81.3383 265.956 82.2422L270.917 85.1455L280.8 90.9135L290.702 96.7011L295.625 99.5854L296.855 100.335L297.585 100.72L299.047 101.508L311.276 108.219L307.276 120.274L306.219 123.447L304.508 128.215L300.874 138.195Z" fill="#125B95"/>
<path d="M499.52 967.879C391.161 967.879 404.273 857.74 404.273 857.74C404.273 857.74 351.949 959.146 204.354 967.261C56.7588 975.375 -42.248 902.369 81.0776 890.198C204.354 878.05 144.583 642.804 131.497 444.048C131.497 444.048 124.941 379.083 169.818 326.165C169.917 326.017 228.153 228.642 437.374 217.782V217.806C437.374 217.806 766.036 200.563 749.808 512.848C736.151 776.001 719.502 821.126 770.489 844.232C770.515 844.256 770.515 844.232 770.515 844.232C780.015 851.307 792.483 854.87 806.535 856.156H806.56C861.753 861.277 941.266 831.491 960.982 841.56C992.748 857.74 979.661 967.879 809.652 967.879C639.644 967.879 632.172 869.243 632.172 869.243C632.172 869.243 607.878 967.879 499.52 967.879Z" fill="#66A0D7"/>
<path d="M751.737 790.819C749.684 817.711 757.205 834.386 770.489 844.232C719.502 821.126 736.151 776 749.808 512.848C766.036 200.563 437.374 217.806 437.374 217.806V217.782C449.744 217.138 462.633 216.792 476.066 216.792C716.979 216.792 800.795 308.204 784.468 490.36C784.171 604.953 756.315 731.247 751.737 790.819Z" fill="#4081C2"/>
<path d="M230.489 673.971C230.489 673.971 220.417 667.651 243.085 651.302C265.754 634.932 297.222 616.037 297.222 616.037C297.222 616.037 309.819 607.126 317.368 627.316C322.303 640.493 333.291 672.765 340.327 693.58C310.399 701.889 260.148 740.95 260.148 740.95H260.126L230.489 673.971Z" fill="white"/>
<path d="M340.327 693.581C344.079 704.636 346.692 712.453 346.692 712.453L346.714 712.475C311.181 729.716 284.917 746.177 267.742 758.147L260.126 740.95H260.148C260.148 740.95 310.399 701.889 340.327 693.581Z" fill="#C8C7C7"/>
<path d="M452.331 670.71C518.662 649.717 601.119 632.52 700.191 627.316C700.191 627.316 454.631 647.863 258.183 806.992L243.085 777.042C243.085 777.042 251.237 769.65 267.742 758.147C284.917 746.177 311.181 729.716 346.714 712.475C356.921 707.517 367.887 702.492 379.634 697.511C401.253 688.31 425.463 679.197 452.331 670.71Z" fill="#1E1F1D"/>
<path d="M379.634 697.511L373.315 678.394C373.315 678.394 415.748 652.508 447.149 649.382C450.098 661.487 452.331 670.71 452.331 670.71C425.463 679.197 401.253 688.31 379.634 697.511Z" fill="#C8C7C7"/>
<path d="M447.149 649.382C415.748 652.508 373.315 678.394 373.315 678.394L356.407 627.316C356.407 627.316 348.166 611.012 368.021 603.441C387.898 595.892 413.068 587.07 413.068 587.07C413.068 587.07 429.439 582.045 433.235 594.619C435.581 602.436 442.325 629.728 447.149 649.382Z" fill="white"/>
<path d="M275.596 419.494C275.596 324.226 352.881 246.94 448.197 246.94C448.244 246.94 448.244 246.94 448.291 246.94L448.197 257.786C370.489 257.786 307.431 320.798 307.431 398.506C307.431 444.849 329.875 486.027 364.479 511.664L315.131 529.459C290.434 499.644 275.596 461.282 275.596 419.494Z" fill="#EEEDED"/>
<path d="M448.197 300.749C489.61 300.749 523.229 334.367 523.229 375.827C523.229 417.287 489.61 450.906 448.197 450.906C406.69 450.906 373.119 417.287 373.119 375.827C373.119 334.367 406.69 300.749 448.197 300.749ZM448.197 333.053C429.697 333.053 414.814 348.031 414.814 366.437C414.814 384.889 429.697 399.82 448.197 399.82C466.556 399.82 481.534 384.889 481.534 366.437C481.534 348.031 466.556 333.053 448.197 333.053Z" fill="white"/>
<path d="M531.774 511.664L581.075 529.459C577.788 533.45 574.313 537.253 570.698 540.916V540.962C553.231 534.718 532.432 529.365 507.828 525.984C516.326 521.993 524.309 517.204 531.774 511.664Z" fill="#B1B1B0"/>
<path d="M523.229 375.827C523.229 334.367 489.61 300.749 448.197 300.749C406.69 300.749 373.119 334.367 373.119 375.827C373.119 417.287 406.69 450.906 448.197 450.906C489.61 450.906 523.229 417.287 523.229 375.827ZM388.472 525.984C379.974 522.04 371.945 517.204 364.479 511.664C329.875 486.027 307.431 444.849 307.431 398.506C307.431 320.798 370.489 257.786 448.197 257.786C525.857 257.786 588.822 320.798 588.822 398.506C588.822 444.849 566.379 486.027 531.774 511.664C524.309 517.204 516.326 521.993 507.828 525.984C490.032 523.543 470.218 522.134 448.197 522.134C426.176 522.134 406.314 523.543 388.472 525.984Z" fill="#1E1F1D"/>
<path d="M325.602 540.962C321.939 537.3 318.465 533.45 315.131 529.459L364.479 511.664C371.945 517.204 379.974 522.04 388.472 525.984C363.869 529.365 343.068 534.718 325.602 540.962Z" fill="#B1B1B0"/>
<path d="M507.828 525.984C532.432 529.365 553.231 534.718 570.698 540.962C627.981 561.481 649.299 591.86 651.552 595.334C648.077 591.249 607.182 547.582 448.197 547.582C289.119 547.582 248.223 591.249 244.701 595.334C246.955 591.86 268.271 561.481 325.602 540.962C343.068 534.718 363.869 529.365 388.472 525.984C406.314 523.542 426.176 522.134 448.197 522.134C470.218 522.134 490.032 523.542 507.828 525.984Z" fill="#1E1F1D"/>
<path d="M448.291 246.94C543.466 246.987 620.704 324.272 620.704 419.494C620.704 461.282 605.819 499.596 581.075 529.459L531.774 511.664C566.379 486.027 588.822 444.849 588.822 398.506C588.822 320.798 525.857 257.786 448.197 257.786L448.291 246.94Z" fill="#EEEDED"/>
<path d="M414.814 366.437C414.814 348.031 429.697 333.053 448.197 333.053C466.556 333.053 481.534 348.031 481.534 366.437C481.534 384.889 466.556 399.82 448.197 399.82C429.697 399.82 414.814 384.889 414.814 366.437Z" fill="#1E1F1D"/>
</g>
</g>
<defs>
<filter id="filter0_d_1_264" x="-4" y="0" width="1008" height="1008" filterUnits="userSpaceOnUse" color-interpolation-filters="sRGB">
<feFlood flood-opacity="0" result="BackgroundImageFix"/>
<feColorMatrix in="SourceAlpha" type="matrix" values="0 0 0 0 0 0 0 0 0 0 0 0 0 0 0 0 0 0 127 0" result="hardAlpha"/>
<feOffset dy="4"/>
<feGaussianBlur stdDeviation="2"/>
<feComposite in2="hardAlpha" operator="out"/>
<feColorMatrix type="matrix" values="0 0 0 0 0 0 0 0 0 0 0 0 0 0 0 0 0 0 0.25 0"/>
<feBlend mode="normal" in2="BackgroundImageFix" result="effect1_dropShadow_1_264"/>
<feBlend mode="normal" in="SourceGraphic" in2="effect1_dropShadow_1_264" result="shape"/>
</filter>
<clipPath id="clip0_1_264">
<rect width="949.415" height="934.888" fill="white" transform="translate(25.2861 33)"/>
</clipPath>
</defs>
</svg>
