<svg width="1000" height="1000" viewBox="0 0 1000 1000" fill="none" xmlns="http://www.w3.org/2000/svg">
<g filter="url(#filter0_d_1_121)">
<g clip-path="url(#clip0_1_121)">
<path d="M753.096 260.302L799.775 155.023C810.23 131.415 799.483 120.669 775.897 131.124L645.867 188.784C620.855 177.886 594.396 169.706 566.86 164.606L516.891 35.052C507.593 10.9827 492.395 10.9827 483.116 35.052L433.132 164.606C405.977 169.629 379.869 177.658 355.15 188.32L226.121 131.124C202.528 120.669 191.776 131.415 202.231 155.023L248.318 258.944C178.158 325.559 134.415 419.699 134.415 524.06C134.415 537.551 135.163 550.836 136.579 563.943L179.646 972.441H319.081L353.969 859.291C398.691 878.826 448.07 889.662 500.003 889.662C551.922 889.662 601.319 878.802 646.068 859.291L680.898 972.364H820.352L863.324 564.694C864.784 551.343 865.585 537.827 865.585 524.06C865.585 420.411 822.422 326.843 753.096 260.302Z" fill="#E62A3B"/>
<path d="M753.096 260.302C753.096 260.302 833.158 429.659 804.807 624.418C788.383 737.225 766.511 875.753 751.012 972.365H820.352L863.324 564.694C864.784 551.37 865.585 537.827 865.585 524.085C865.585 420.411 822.422 326.843 753.096 260.302Z" fill="#CA152C"/>
<path d="M335.183 430.81C329.691 430.81 325.273 426.375 325.273 420.9C325.273 415.426 329.691 411.007 335.183 411.007C340.642 411.007 345.076 415.426 345.076 420.9C345.076 426.375 340.642 430.81 335.183 430.81Z" fill="white"/>
<path d="M447.113 419.276C447.113 465.575 409.57 503.151 363.238 503.151C316.923 503.151 279.38 465.575 279.38 419.276C279.38 372.96 316.923 335.417 363.238 335.417C409.57 335.417 447.113 372.96 447.113 419.276ZM363.238 473.487C393.195 473.487 417.482 449.199 417.482 419.276C417.482 389.352 393.195 365.065 363.238 365.065C333.298 365.065 309.044 389.352 309.044 419.276C309.044 449.199 333.298 473.487 363.238 473.487Z" fill="url(#paint0_linear_1_121)"/>
<path d="M363.238 473.487C333.298 473.487 309.044 449.199 309.044 419.276C309.044 389.352 333.298 365.065 363.238 365.065C393.195 365.065 417.482 389.352 417.482 419.276C417.482 449.199 393.195 473.487 363.238 473.487ZM325.273 420.9C325.273 426.375 329.691 430.81 335.183 430.81C340.642 430.81 345.076 426.375 345.076 420.9C345.076 415.426 340.642 411.007 335.183 411.007C329.691 411.007 325.273 415.426 325.273 420.9ZM363.238 414.093C374.172 414.093 383.042 405.239 383.042 394.306C383.042 383.373 374.172 374.503 363.238 374.503C352.321 374.503 343.452 383.373 343.452 394.306C343.452 405.239 352.321 414.093 363.238 414.093Z" fill="#1E1F1D"/>
<path d="M363.238 503.151C409.57 503.151 447.113 465.575 447.113 419.276C447.113 372.96 409.57 335.417 363.238 335.417C316.923 335.417 279.38 372.96 279.38 419.276C279.38 465.575 316.923 503.151 363.238 503.151ZM490.147 419.276C490.147 489.391 433.338 546.201 363.238 546.201C293.14 546.201 236.346 489.391 236.346 419.276C236.346 349.16 293.14 292.35 363.238 292.35C433.338 292.35 490.147 349.16 490.147 419.276Z" fill="white"/>
<path d="M363.238 414.093C352.321 414.093 343.452 405.239 343.452 394.306C343.452 383.373 352.321 374.503 363.238 374.503C374.172 374.503 383.042 383.373 383.042 394.306C383.042 405.239 374.172 414.093 363.238 414.093Z" fill="white"/>
<path d="M545.623 420.901C545.623 467.2 583.166 504.776 629.498 504.776C675.814 504.776 713.356 467.2 713.356 420.901C713.356 374.585 675.814 337.042 629.498 337.042C583.166 337.042 545.623 374.585 545.623 420.901ZM629.498 475.112C599.541 475.112 575.255 450.825 575.255 420.901C575.255 390.977 599.541 366.69 629.498 366.69C659.439 366.69 683.692 390.977 683.692 420.901C683.692 450.825 659.439 475.112 629.498 475.112Z" fill="url(#paint1_linear_1_121)"/>
<path d="M629.498 415.718C640.415 415.718 649.284 406.865 649.284 395.932C649.284 384.999 640.415 376.129 629.498 376.129C618.565 376.129 609.694 384.999 609.694 395.932C609.694 406.865 618.565 415.718 629.498 415.718Z" fill="white"/>
<path d="M629.498 504.776C583.166 504.776 545.623 467.2 545.623 420.901C545.623 374.585 583.166 337.042 629.498 337.042C675.814 337.042 713.356 374.585 713.356 420.901C713.356 467.2 675.814 504.776 629.498 504.776ZM502.589 420.901C502.589 491.016 559.398 547.827 629.498 547.827C699.597 547.827 756.391 491.016 756.391 420.901C756.391 350.786 699.597 293.976 629.498 293.976C559.398 293.976 502.589 350.786 502.589 420.901Z" fill="white"/>
<path d="M575.255 420.901C575.255 450.825 599.541 475.112 629.498 475.112C659.438 475.112 683.692 450.825 683.692 420.901C683.692 390.977 659.438 366.69 629.498 366.69C599.541 366.69 575.255 390.977 575.255 420.901ZM629.498 415.718C618.564 415.718 609.694 406.865 609.694 395.932C609.694 384.999 618.564 376.129 629.498 376.129C640.415 376.129 649.284 384.999 649.284 395.932C649.284 406.865 640.415 415.718 629.498 415.718ZM657.554 432.435C652.095 432.435 647.66 428 647.66 422.526C647.66 417.051 652.095 412.632 657.554 412.632C663.045 412.632 667.463 417.051 667.463 422.526C667.463 428 663.045 432.435 657.554 432.435Z" fill="#1E1F1D"/>
<path d="M647.66 422.526C647.66 428 652.095 432.435 657.554 432.435C663.045 432.435 667.463 428 667.463 422.526C667.463 417.051 663.045 412.632 657.554 412.632C652.095 412.632 647.66 417.051 647.66 422.526Z" fill="white"/>
<path d="M349.527 721.749C374.912 744.27 423.595 778.441 485.189 778.441C571.294 778.441 613.667 744.804 618.667 740.581L618.715 740.63C570.178 788.536 477.568 804.748 418.547 792.711C386.173 786.11 356.856 768.393 341.566 740.145C341.566 740.145 343.266 732.67 349.527 721.749Z" fill="#C71B1B"/>
<path d="M333.121 718.06C321.424 669.474 338.072 636.324 367.68 614.045C436.991 561.915 634.781 527.406 650.07 652.098C653.031 676.366 648.323 697.432 638.179 715.439C638.179 715.439 620.754 623.655 490.14 642.876C400.006 656.127 363.506 697.432 349.527 721.749C343.266 732.67 341.566 740.145 341.566 740.145C337.927 733.398 335.015 726.02 333.121 718.06Z" fill="#1E1F1D"/>
<path d="M638.179 715.439C633.033 724.661 626.433 733.01 618.715 740.63L618.667 740.581C613.667 744.804 571.294 778.441 485.189 778.441C423.595 778.441 374.912 744.27 349.527 721.749C363.506 697.432 400.006 656.127 490.14 642.876C620.754 623.655 638.179 715.439 638.179 715.439Z" fill="#E52523"/>
</g>
</g>
<defs>
<filter id="filter0_d_1_121" x="-4" y="0" width="1008" height="1008" filterUnits="userSpaceOnUse" color-interpolation-filters="sRGB">
<feFlood flood-opacity="0" result="BackgroundImageFix"/>
<feColorMatrix in="SourceAlpha" type="matrix" values="0 0 0 0 0 0 0 0 0 0 0 0 0 0 0 0 0 0 127 0" result="hardAlpha"/>
<feOffset dy="4"/>
<feGaussianBlur stdDeviation="2"/>
<feComposite in2="hardAlpha" operator="out"/>
<feColorMatrix type="matrix" values="0 0 0 0 0 0 0 0 0 0 0 0 0 0 0 0 0 0 0.25 0"/>
<feBlend mode="normal" in2="BackgroundImageFix" result="effect1_dropShadow_1_121"/>
<feBlend mode="normal" in="SourceGraphic" in2="effect1_dropShadow_1_121" result="shape"/>
</filter>
<linearGradient id="paint0_linear_1_121" x1="279.38" y1="419.284" x2="447.113" y2="419.284" gradientUnits="userSpaceOnUse">
<stop stop-color="#2273B7"/>
<stop offset="0.6" stop-color="#3DA4DD"/>
</linearGradient>
<linearGradient id="paint1_linear_1_121" x1="713.356" y1="420.909" x2="545.623" y2="420.909" gradientUnits="userSpaceOnUse">
<stop stop-color="#2273B7"/>
<stop offset="0.6" stop-color="#3DA4DD"/>
</linearGradient>
<clipPath id="clip0_1_121">
<rect width="731.17" height="955.441" fill="white" transform="translate(134.415 17)"/>
</clipPath>
</defs>
</svg>
