<svg width="1000" height="1000" viewBox="0 0 1000 1000" fill="none" xmlns="http://www.w3.org/2000/svg">
<g filter="url(#filter0_d_1_3)">
<g clip-path="url(#clip0_1_3)">
<path d="M882.683 91.2503C901.458 73.6136 932.45 103.766 940.361 154.265C919.771 140.449 897.529 139.176 882.981 140.368C887.207 111.867 882.873 92.0901 882.683 91.2503Z" fill="#C783B7"/>
<path d="M874.935 172.959C864.667 171.523 857.163 171.659 856.566 171.685C861.172 162.745 864.721 153.236 866.861 143.131C867.43 142.941 873.607 141.153 882.981 140.368C881.545 150.31 879.025 161.309 874.935 172.959Z" fill="#125785"/>
<path d="M917.875 278.86C914.19 231.152 883.415 210.427 861.903 201.703C867.458 191.869 871.684 182.224 874.935 172.959C896.527 175.912 930.392 185.746 937.923 218.094C933.778 238.9 927.086 259.381 917.875 278.86Z" fill="#C783B7"/>
<path d="M791.086 240.39C791.086 240.39 799.809 248.301 810.456 261.928C786.48 281.624 754.945 300.236 713.603 315.922L707.372 278.887L730.779 272.602C730.779 272.602 759.686 261.711 791.086 240.39Z" fill="#125785"/>
<path d="M882.683 91.2504C882.873 92.0902 887.207 111.867 882.981 140.368C873.607 141.153 867.43 142.941 866.861 143.131C867.701 139.176 868.324 135.139 868.704 131.021C870.6 110.513 875.829 97.6982 882.683 91.2504Z" fill="#8E4C87"/>
<path d="M810.457 261.928C828.039 284.522 850.85 322.83 847.897 367.044C816.633 391.616 777.621 409.686 730.779 417.814L713.604 315.922C754.945 300.236 786.48 281.624 810.457 261.928Z" fill="#1B70B6"/>
<path d="M840.853 195.716C840.853 195.716 849.956 196.854 861.903 201.703C856.864 210.752 850.715 219.963 843.264 229.12C830.206 220.938 819.613 218.094 819.613 218.094C827.172 211.266 834.405 203.816 840.853 195.716Z" fill="#125785"/>
<path d="M847.897 367.044C850.85 322.83 828.039 284.522 810.457 261.928C823.515 251.227 834.324 240.2 843.264 229.12C864.531 242.449 892.354 269.92 891.705 322.261C879.377 338.706 864.775 353.823 847.897 367.044Z" fill="#C783B7"/>
<path d="M856.566 171.685C857.163 171.659 864.667 171.523 874.935 172.959C871.684 182.224 867.458 191.869 861.903 201.703C849.956 196.854 840.853 195.716 840.853 195.716C846.84 188.239 852.178 180.22 856.54 171.685C856.54 171.685 856.54 171.685 856.566 171.685Z" fill="#8E4C87"/>
<path d="M937.923 218.094C930.392 185.746 896.527 175.912 874.935 172.959C879.025 161.309 881.545 150.31 882.981 140.368C897.529 139.176 919.771 140.449 940.361 154.265C942.61 168.651 942.989 184.717 940.659 201.811C939.928 207.257 939.006 212.675 937.923 218.094Z" fill="#1B70B6"/>
<path d="M843.264 229.12C850.715 219.963 856.864 210.752 861.903 201.703C883.415 210.427 914.19 231.152 917.875 278.86V278.887C910.696 294.059 901.972 308.607 891.705 322.261C892.355 269.92 864.531 242.449 843.264 229.12Z" fill="#1B70B6"/>
<path d="M791.086 240.39C800.622 233.915 810.375 226.492 819.613 218.094C819.613 218.094 830.206 220.938 843.264 229.12C834.324 240.201 823.515 251.227 810.457 261.928C799.809 248.301 791.086 240.39 791.086 240.39Z" fill="#8E4C87"/>
<path d="M117.016 141.162C112.736 112.066 117.341 92.0721 117.341 92.0721C98.5396 74.4085 67.5469 104.561 59.6631 155.034C80.2529 141.244 102.468 139.971 117.016 141.162Z" fill="#C783B7"/>
<path d="M125.036 173.754C120.972 162.104 118.479 151.105 117.016 141.162C102.468 139.97 80.2531 141.243 59.6633 155.033C57.4148 169.446 57.0354 185.511 59.3654 202.606C60.0969 208.025 60.9909 213.443 62.0744 218.834C69.6604 186.541 103.47 176.707 125.036 173.754Z" fill="#1B70B6"/>
<path d="M152.1 367.839C183.364 392.411 222.376 410.509 269.218 418.609L286.394 316.744C245.052 301.058 213.517 282.446 189.541 262.75C171.932 285.345 149.12 323.625 152.1 367.839Z" fill="#1B70B6"/>
<path d="M156.733 229.942C149.283 220.758 143.133 211.547 138.067 202.498C116.556 211.222 85.8071 231.974 82.1226 279.655V279.682C89.3018 294.854 98.0254 309.429 108.293 323.083C107.643 270.715 135.466 243.244 156.733 229.942Z" fill="#1B70B6"/>
<path d="M117.342 92.0721C117.342 92.0721 112.736 112.066 117.016 141.162C126.823 141.948 133.163 143.899 133.163 143.899C132.323 139.971 131.7 135.934 131.321 131.843C129.425 111.334 124.196 98.5198 117.342 92.0721Z" fill="#8E4C87"/>
<path d="M159.117 196.484C153.157 189.007 147.819 181.015 143.431 172.48C143.431 172.48 135.737 172.264 125.036 173.754C128.314 183.019 132.54 192.664 138.066 202.498C149.607 197.811 158.494 196.565 159.117 196.484Z" fill="#8E4C87"/>
<path d="M180.384 218.889C180.384 218.889 169.791 221.733 156.733 229.942C165.673 240.995 176.482 252.049 189.541 262.75C200.161 249.096 208.912 241.185 208.912 241.185C199.375 234.71 189.622 227.287 180.384 218.889Z" fill="#8E4C87"/>
<path d="M125.036 173.754C103.47 176.707 69.6602 186.541 62.0742 218.834C66.2192 239.668 72.9111 260.177 82.1221 279.655C85.8066 231.974 116.556 211.222 138.066 202.498C132.54 192.664 128.314 183.019 125.036 173.754Z" fill="#C783B7"/>
<path d="M159.117 196.484C158.494 196.565 149.607 197.811 138.066 202.498C143.133 211.547 149.283 220.758 156.733 229.942C169.791 221.733 180.384 218.889 180.384 218.889C172.825 212.061 165.592 204.584 159.144 196.484C159.144 196.484 159.144 196.484 159.117 196.484Z" fill="#125785"/>
<path d="M133.163 143.899C133.163 143.899 126.823 141.948 117.016 141.162C118.479 151.105 120.972 162.104 125.036 173.754C135.737 172.264 143.431 172.48 143.431 172.48C138.825 163.54 135.276 154.004 133.163 143.899Z" fill="#125785"/>
<path d="M156.733 229.942C135.466 243.244 107.643 270.715 108.293 323.083C120.647 339.528 135.249 354.645 152.101 367.839C149.121 323.625 171.932 285.345 189.541 262.75C176.483 252.049 165.673 240.995 156.733 229.942Z" fill="#C783B7"/>
<path d="M292.625 279.682L269.218 273.397C269.218 273.397 240.311 262.506 208.912 241.185C208.912 241.185 200.161 249.096 189.541 262.75C213.517 282.446 245.052 301.058 286.394 316.744L292.625 279.682Z" fill="#125785"/>
<path d="M694.46 918.643C631.975 892.328 737.568 795.673 780.68 405.633C805.098 184.6 703.577 121.8 611.004 108.865L641.809 50.6374C643.636 47.2561 639.661 42.8869 631.632 39.3957C623.642 35.8952 611.734 33.5871 599.277 34.0617C578.224 34.8601 559.796 38.4548 543.049 43.1442C526.327 47.8752 511.257 53.757 497.16 60.259C483.066 66.7375 469.989 73.8581 457.571 81.3815C445.196 88.9069 433.286 96.8874 422.272 105.33L420.664 106.805L418.945 108.175C410.914 113.309 403.681 118.75 396.723 124.335C389.792 129.945 383.234 135.733 377.017 141.685C364.587 153.57 353.572 166.073 344.207 178.933L308.552 138.172C305.926 135.17 301.292 135.147 295.984 137.684C290.661 140.232 284.708 145.4 279.895 152.471C268.661 169.048 259.502 186.317 252.901 203.796C246.273 221.288 242.216 238.945 240.786 256.166C239.303 273.385 240.416 290.128 243.619 306.014C245.215 313.942 247.318 321.67 249.849 329.185C250.494 331.078 257.026 349.046 257.026 349.046C257.013 350.189 257.026 351.368 257.013 352.525L202.008 350.655C193.332 350.357 190.252 361.55 195.286 375.481C215.155 430.71 235.519 485.605 255.982 540.477L223.228 539.739C214.536 539.55 211.663 550.717 216.819 564.554L271.946 711.032C272.001 711.579 272.029 712.114 272.056 712.664L240.086 712.042C231.394 711.876 228.576 723.047 233.788 736.882L281.627 862.559C282.121 870.073 282.52 876.68 282.85 882.206C287.665 964.931 256.971 935.647 211.717 958.225C166.463 980.803 274.216 982.229 360.421 982.229C446.639 982.229 386.286 928.183 394.906 882.206C403.53 836.242 422.919 833.002 530.686 837.29C638.439 841.586 591.024 922.571 578.085 958.225C565.159 993.874 703.081 980.435 774.201 976.302C845.335 972.205 756.972 944.983 694.46 918.643Z" fill="#66A0D7"/>
<path d="M501.73 570.008C444.067 570.008 392.59 596.449 358.763 637.844C354.186 643.44 349.926 649.331 346.029 655.448L346.006 655.471C309.143 616.841 286.486 564.48 286.486 506.84C286.486 491.908 287.981 477.272 290.904 463.27C341.837 511.348 417.377 541.777 501.73 541.777C586.015 541.777 661.554 511.348 712.533 463.27C715.434 477.272 716.974 491.908 716.974 506.84C716.974 564.48 694.294 616.841 657.431 655.471L657.408 655.448C653.511 649.331 649.251 643.44 644.652 637.844C610.825 596.449 559.37 570.008 501.73 570.008Z" fill="#1E1F1D"/>
<path d="M346.029 655.448C349.926 649.331 354.186 643.44 358.763 637.844C394.221 676.52 445.132 700.831 501.73 700.831C558.305 700.831 609.239 676.52 644.652 637.844C649.251 643.44 653.511 649.331 657.408 655.448L657.431 655.471C618.234 696.504 562.95 722.084 501.73 722.084C440.487 722.084 385.226 696.504 346.006 655.471L346.029 655.448Z" fill="#A3201B"/>
<path d="M501.73 570.008C559.37 570.008 610.825 596.449 644.652 637.844C609.239 676.52 558.305 700.831 501.73 700.831C445.132 700.831 394.221 676.52 358.763 637.844C392.59 596.449 444.067 570.008 501.73 570.008Z" fill="#E32D28"/>
<path d="M399.915 303.73C399.915 244.327 448.067 196.175 507.471 196.175C566.895 196.175 615.047 244.327 615.047 303.73C615.047 363.113 566.895 411.307 507.471 411.307C448.067 411.307 399.915 363.113 399.915 303.73ZM577.043 303.73C577.043 265.35 545.893 234.201 507.471 234.201C469.07 234.201 437.961 265.35 437.961 303.73C437.961 342.11 469.07 373.26 507.471 373.26C545.893 373.26 577.043 342.11 577.043 303.73Z" fill="url(#paint0_linear_1_3)"/>
<path d="M344.72 303.73C344.72 213.802 417.563 140.938 507.471 140.938C597.378 140.938 670.242 213.802 670.242 303.73C670.242 393.659 597.378 466.522 507.471 466.522C417.563 466.522 344.72 393.659 344.72 303.73ZM507.471 196.175C448.067 196.175 399.915 244.327 399.915 303.73C399.915 363.113 448.067 411.307 507.471 411.307C566.895 411.307 615.047 363.113 615.047 303.73C615.047 244.327 566.895 196.175 507.471 196.175Z" fill="white"/>
<path d="M458.777 305.814C458.777 298.792 464.444 293.125 471.487 293.125C478.488 293.125 484.176 298.792 484.176 305.814C484.176 312.836 478.488 318.524 471.487 318.524C464.444 318.524 458.777 312.836 458.777 305.814Z" fill="white"/>
<path d="M437.961 303.73C437.961 265.35 469.07 234.201 507.471 234.201C545.893 234.201 577.043 265.35 577.043 303.73C577.043 342.11 545.893 373.26 507.471 373.26C469.07 373.26 437.961 342.11 437.961 303.73ZM471.487 293.125C464.444 293.125 458.777 298.792 458.777 305.814C458.777 312.836 464.444 318.524 471.487 318.524C478.488 318.524 484.176 312.836 484.176 305.814C484.176 298.792 478.488 293.125 471.487 293.125ZM532.87 271.705C532.87 257.682 521.493 246.306 507.471 246.306C493.469 246.306 482.092 257.682 482.092 271.705C482.092 285.728 493.469 297.083 507.471 297.083C521.493 297.083 532.87 285.728 532.87 271.705Z" fill="#1E1F1D"/>
<path d="M507.471 246.306C521.493 246.306 532.87 257.682 532.87 271.705C532.87 285.728 521.493 297.083 507.471 297.083C493.469 297.083 482.092 285.728 482.092 271.705C482.092 257.682 493.469 246.306 507.471 246.306Z" fill="white"/>
</g>
</g>
<defs>
<filter id="filter0_d_1_3" x="-4" y="0" width="1008" height="1008" filterUnits="userSpaceOnUse" color-interpolation-filters="sRGB">
<feFlood flood-opacity="0" result="BackgroundImageFix"/>
<feColorMatrix in="SourceAlpha" type="matrix" values="0 0 0 0 0 0 0 0 0 0 0 0 0 0 0 0 0 0 127 0" result="hardAlpha"/>
<feOffset dy="4"/>
<feGaussianBlur stdDeviation="2"/>
<feComposite in2="hardAlpha" operator="out"/>
<feColorMatrix type="matrix" values="0 0 0 0 0 0 0 0 0 0 0 0 0 0 0 0 0 0 0.25 0"/>
<feBlend mode="normal" in2="BackgroundImageFix" result="effect1_dropShadow_1_3"/>
<feBlend mode="normal" in="SourceGraphic" in2="effect1_dropShadow_1_3" result="shape"/>
</filter>
<linearGradient id="paint0_linear_1_3" x1="399.915" y1="303.741" x2="615.047" y2="303.741" gradientUnits="userSpaceOnUse">
<stop stop-color="#2273B7"/>
<stop offset="0.6" stop-color="#3DA4DD"/>
</linearGradient>
<clipPath id="clip0_1_3">
<rect width="884.448" height="948.234" fill="white" transform="translate(57.7881 34)"/>
</clipPath>
</defs>
</svg>
