<svg width="1000" height="998" viewBox="0 0 1000 998" fill="none" xmlns="http://www.w3.org/2000/svg">
<g filter="url(#filter0_d_1_343)">
<g clip-path="url(#clip0_1_343)">
<path d="M604.066 90.4092L630.504 72.3721L636.742 68.084L641.473 64.8017L650.878 58.2158L670.518 44.543L699.292 25L715.959 39.2519L724.456 46.4355L728.453 49.8545L731.292 52.1904L753.81 70.8848L776.386 89.5976L782.005 94.2519L784.902 96.6465L789.44 100.548L807.922 116.345L804.446 136.893L802.766 146.993L801.819 153.23L798.034 178.22L794.268 203.21L792.395 215.704L788.803 236.735L777.12 247.55L774.203 250.253L772.562 251.798L769.317 254.907L756.359 267.286L730.423 292.083L678.552 341.637C673.183 347.218 667.351 352.818 661.132 358.322C633.111 382.983 604.24 367.901 602.038 344.379L748.035 223.352L781.986 131.234L693.576 53.7353L625.734 95.5068L652.848 159.102H652.867C652.577 163.041 651.399 165.744 649.313 166.595C643.558 168.931 633.092 156.668 625.908 139.19L621.485 129.477L619.187 124.417L616.232 117.755L604.066 90.4092Z" fill="#4081C2"/>
<path d="M648.522 93.8077L636.22 100.548L640.256 112.656L641.338 115.843L643.056 120.632L646.706 130.655C651.244 141.74 653.369 152.284 652.867 159.102H652.848L625.734 95.5068L693.576 53.7354L781.986 131.234L748.035 223.352L602.038 344.379C601.034 333.623 605.611 321.108 618.415 309.812C624.652 304.346 630.929 299.267 637.128 294.651L692.842 249.462L720.709 226.828L734.633 215.512L738.109 212.673L739.867 211.282C740.06 211.166 740.137 211.108 740.292 211.012L742.03 209.969L742.532 208.675L742.802 208.037L742.937 207.69L743.285 206.223L746.162 193.959L751.956 169.337L757.749 144.733L759.217 138.592C759.352 137.936 759.352 138.013 759.41 137.781L759.584 137.298L759.893 136.294L761.245 132.026L757.943 128.261L757.055 127.256L754.524 124.784L749.31 119.666L728.318 99.2148L707.384 78.7638L704.758 76.1759L704.198 75.6163L703.928 75.3067L703.328 74.708L700.934 72.1593L695.893 66.791L685.929 72.043C685.407 72.333 683.341 73.5499 681.757 74.4571L676.813 77.3731L666.868 83.167L656.922 88.9795L651.978 91.8769L650.723 92.6299L649.989 93.0157L648.522 93.8077Z" fill="#125B95"/>
<path d="M344.664 344.379L198.686 223.352L164.735 131.234L253.145 53.7353L320.969 95.5068L293.874 159.102H293.835C294.125 163.061 295.303 165.744 297.408 166.595C303.182 168.931 313.611 156.668 320.814 139.19L325.217 129.477L327.535 124.417L330.509 117.755L342.675 90.4092L316.199 72.3721L309.98 68.084L305.249 64.8017L295.825 58.2158L276.184 44.543L247.41 25L230.763 39.2519L222.246 46.4355L218.249 49.8545L215.429 52.1904L192.892 70.8848L170.374 89.5976L164.716 94.2519L161.8 96.6465L157.262 100.548L138.8 116.345L142.256 136.893L143.936 146.993L144.902 153.23L148.668 178.22L152.434 203.21L154.326 215.704L157.86 236.735L169.583 247.55L172.518 250.253L174.16 251.798L177.385 254.907L190.343 267.286L216.279 292.083L268.17 341.637C273.519 347.218 279.352 352.818 285.608 358.322C313.63 382.983 342.52 367.901 344.684 344.379H344.664Z" fill="#4081C2"/>
<path d="M293.874 159.102L320.969 95.5068L253.145 53.7354L164.735 131.234L198.685 223.352L344.664 344.379H344.684C345.687 333.623 341.091 321.108 328.307 309.812C322.05 304.346 315.773 299.267 309.575 294.651L253.86 249.462L226.012 226.828L212.069 215.512L208.593 212.673L206.835 211.282C206.662 211.166 206.565 211.108 206.43 211.012L204.711 209.969L204.17 208.675L203.9 208.037L203.784 207.69L203.456 206.223L200.54 193.959L194.746 169.337L188.953 144.733L187.504 138.592C187.369 137.936 187.369 138.013 187.292 137.781L187.137 137.298L186.809 136.294L185.477 132.026L188.759 128.261L189.648 127.256L192.178 124.784L197.411 119.666L218.384 99.2148L239.337 78.7638L241.944 76.1759L242.524 75.6163L242.794 75.3067L243.373 74.708L245.788 72.1593L250.828 66.791L260.773 72.043C261.295 72.333 263.38 73.5499 264.945 74.4571L269.927 77.3731L279.853 83.167L289.799 88.9795L294.743 91.8769L295.979 92.6299L296.713 93.0157L298.181 93.8077L310.463 100.548L306.446 112.656L305.384 115.843L303.665 120.632L300.015 130.655C295.457 141.74 293.333 152.284 293.835 159.102H293.874Z" fill="#125B95"/>
<path d="M475.962 209.573C717.928 209.573 802.112 301.385 785.712 484.339C785.414 599.433 757.436 726.28 752.839 786.113C750.777 813.122 758.331 829.87 771.674 839.759C720.462 816.552 737.185 771.229 750.901 506.925C767.201 193.273 437.1 210.592 437.1 210.592V210.567C449.524 209.921 462.469 209.573 475.962 209.573Z" fill="#4081C2"/>
<path d="M203.06 963.326C54.8188 971.477 -44.6216 898.151 79.2441 885.926C203.06 873.726 143.028 637.449 129.884 437.823C129.884 437.823 123.299 372.573 168.373 319.425C168.472 319.275 226.963 221.475 437.1 210.567V210.592C437.1 210.592 767.201 193.273 750.901 506.925C737.185 771.229 720.462 816.552 771.674 839.759C771.699 839.784 771.699 839.759 771.699 839.759C781.24 846.865 793.763 850.443 807.877 851.735H807.901C863.336 856.879 943.197 826.963 963 837.075C994.905 853.326 981.761 963.948 811.007 963.948C640.254 963.948 632.75 864.88 632.75 864.88C632.75 864.88 608.35 963.948 499.517 963.948C390.685 963.948 403.854 853.326 403.854 853.326C403.854 853.326 351.301 955.177 203.06 963.326Z" fill="#66A0D7"/>
<path d="M495.006 480.029C495.006 456.62 476.015 437.629 452.606 437.629C429.232 437.629 410.241 456.62 410.241 480.029C410.241 503.438 429.232 522.395 452.606 522.395C476.015 522.395 495.006 503.438 495.006 480.029ZM452.606 417.42C516.746 417.42 568.746 469.42 568.746 533.49C568.746 597.56 516.746 649.56 452.606 649.56C388.502 649.56 336.571 597.56 336.571 533.49C336.571 469.42 388.502 417.42 452.606 417.42ZM392.537 515.786C380.78 515.786 371.319 525.247 371.319 536.969C371.319 548.69 380.78 558.185 392.537 558.185C404.224 558.185 413.719 548.69 413.719 536.969C413.719 525.247 404.224 515.786 392.537 515.786Z" fill="#1E1F1D"/>
<path d="M452.606 417.42C388.502 417.42 336.571 469.42 336.571 533.49C336.571 597.56 388.502 649.56 452.606 649.56C516.746 649.56 568.746 597.56 568.746 533.49C568.746 469.42 516.746 417.42 452.606 417.42ZM273.058 533.49C273.058 434.324 353.44 353.941 452.606 353.941C551.807 353.941 632.19 434.324 632.19 533.49C632.19 632.621 551.807 713.073 452.606 713.073C353.44 713.073 273.058 632.621 273.058 533.49Z" fill="url(#paint0_linear_1_343)"/>
<path d="M371.319 536.969C371.319 525.247 380.78 515.786 392.537 515.786C404.224 515.786 413.719 525.247 413.719 536.969C413.719 548.69 404.224 558.185 392.537 558.185C380.78 558.185 371.319 548.69 371.319 536.969Z" fill="white"/>
<path d="M452.606 437.629C476.015 437.629 495.006 456.62 495.006 480.029C495.006 503.438 476.015 522.395 452.606 522.395C429.232 522.395 410.241 503.438 410.241 480.029C410.241 456.62 429.232 437.629 452.606 437.629Z" fill="white"/>
<path d="M632.189 533.49C632.189 434.324 551.807 353.941 452.606 353.941C353.44 353.941 273.058 434.324 273.058 533.49C273.058 632.621 353.44 713.073 452.606 713.073C551.807 713.073 632.189 632.621 632.189 533.49ZM452.606 261.732C602.694 261.732 724.329 383.368 724.329 533.49C724.329 683.612 602.694 805.247 452.606 805.247C302.519 805.247 180.918 683.612 180.918 533.49C180.918 383.368 302.519 261.732 452.606 261.732Z" fill="white"/>
</g>
</g>
<defs>
<filter id="filter0_d_1_343" x="-4" y="-2" width="1008" height="1008" filterUnits="userSpaceOnUse" color-interpolation-filters="sRGB">
<feFlood flood-opacity="0" result="BackgroundImageFix"/>
<feColorMatrix in="SourceAlpha" type="matrix" values="0 0 0 0 0 0 0 0 0 0 0 0 0 0 0 0 0 0 127 0" result="hardAlpha"/>
<feOffset dy="4"/>
<feGaussianBlur stdDeviation="2"/>
<feComposite in2="hardAlpha" operator="out"/>
<feColorMatrix type="matrix" values="0 0 0 0 0 0 0 0 0 0 0 0 0 0 0 0 0 0 0.25 0"/>
<feBlend mode="normal" in2="BackgroundImageFix" result="effect1_dropShadow_1_343"/>
<feBlend mode="normal" in="SourceGraphic" in2="effect1_dropShadow_1_343" result="shape"/>
</filter>
<linearGradient id="paint0_linear_1_343" x1="273.058" y1="533.507" x2="632.19" y2="533.507" gradientUnits="userSpaceOnUse">
<stop stop-color="#2273B7"/>
<stop offset="0.6" stop-color="#3DA4DD"/>
</linearGradient>
<clipPath id="clip0_1_343">
<rect width="953.571" height="938.957" fill="white" transform="translate(23.2083 25)"/>
</clipPath>
</defs>
</svg>
