<svg width="1000" height="1005" viewBox="0 0 1000 1005" fill="none" xmlns="http://www.w3.org/2000/svg">
<g filter="url(#filter0_d_1_148)">
<g clip-path="url(#clip0_1_148)">
<path d="M875.321 572.225C851.697 513.044 815.04 464.097 772.695 430.606L804.08 415.486C812.465 411.601 809.885 399.763 797.775 390.594C754.896 358.156 707.012 339.157 662.779 334.918L682.162 306.316C684.749 302.49 684.287 298.515 681.285 295.288C678.296 292.081 672.805 289.65 665.78 289.119C642.718 287.356 620.512 288.924 600.106 293.35C584.257 296.774 569.538 301.938 556.08 308.432C537.9 304.92 519.127 303.052 499.913 303.052C480.758 303.052 462.023 304.899 443.871 308.412C430.442 301.931 415.733 296.774 399.892 293.35C379.49 288.924 357.283 287.356 334.232 289.119C327.205 289.65 321.708 292.081 318.734 295.288C315.717 298.515 315.252 302.49 317.851 306.316L337.221 334.918C292.988 339.157 245.103 358.156 202.226 390.594C190.137 399.763 187.539 411.601 195.921 415.486L227.305 430.606C184.963 464.097 148.323 513.044 124.679 572.225C118.687 587.247 122.299 599.692 131.508 598.983L191.237 595.215C179.244 625.291 171.195 658.665 168.523 694.202C165.835 729.729 168.48 767.43 177.791 805.644C181.814 822.123 192.418 830.831 199.512 824.975L248.557 785.818C258.367 825.221 277.05 865.381 306.349 901.705C335.511 937.952 375.728 970.203 424.806 992.121C433.395 995.969 441.589 997.238 447.533 996.355C453.484 995.479 457.153 992.497 457.184 987.871L458.146 887.381C471.795 889.34 485.736 890.353 499.913 890.353C514.148 890.353 528.16 889.319 541.857 887.371L542.819 987.871C542.859 992.497 546.517 995.479 552.469 996.355C558.412 997.238 566.607 995.969 575.195 992.121C624.273 970.203 664.503 937.952 693.662 901.705C722.972 865.381 741.635 825.221 751.455 785.818L800.49 824.975C807.583 830.831 818.189 822.123 822.213 805.644C831.52 767.43 834.167 729.729 831.473 694.202C828.805 658.665 820.758 625.291 808.755 595.215L868.492 598.983C877.701 599.692 881.312 587.247 875.321 572.225Z" fill="url(#paint0_linear_1_148)"/>
<path d="M500 730.758C551.807 730.758 583.084 753.952 597.364 768.111L597.33 768.146C577.112 795.356 546.354 816.231 499.567 816.231C453.058 816.231 422.368 795.598 402.134 768.63L402.116 768.613C416.154 754.506 447.57 730.758 500 730.758Z" fill="#E43333"/>
<path d="M393.341 778.86C393.341 778.86 396.18 774.602 402.116 768.613L402.134 768.63C422.368 795.598 453.058 816.231 499.567 816.231C546.354 816.231 577.112 795.356 597.33 768.146L597.364 768.111C603.648 774.377 606.642 778.86 606.642 778.86C585.092 809.342 551.686 833.159 500 833.159C448.297 833.159 414.908 809.342 393.341 778.86Z" fill="#9C1C1B"/>
<path d="M646.038 649.093C646.038 649.093 645.086 724.579 606.642 778.86C606.642 778.86 603.648 774.378 597.364 768.111C583.084 753.952 551.807 730.758 500 730.758C447.57 730.758 416.154 754.506 402.116 768.613C396.18 774.602 393.341 778.86 393.341 778.86C354.914 724.579 353.979 649.093 353.979 649.093V586.244H380.878V597.062V703.479L428.669 611.186L450.461 642.343L473.655 614.734L500 644.835L522.762 614.734L545.974 642.343L567.783 611.186L615.539 703.479V597.062V586.244H646.038V649.093Z" fill="#1E1F1D"/>
<path d="M380.878 597.062V586.244H500H615.539V597.062H380.878Z" fill="#C8C7C7"/>
<path d="M380.878 597.062H615.539V703.479L567.783 611.186L545.974 642.343L522.762 614.734L500 644.835L473.655 614.734L450.461 642.343L428.669 611.186L380.878 703.479V597.062Z" fill="white"/>
<path d="M427.667 483.136C427.667 489.052 422.881 493.857 416.984 493.857C411.029 493.857 406.243 489.052 406.243 483.136C406.243 477.22 411.029 472.396 416.984 472.396C422.881 472.396 427.667 477.22 427.667 483.136Z" fill="white"/>
<path d="M397.016 444.233C397.016 456.084 387.404 465.695 375.573 465.695C363.722 465.695 354.111 456.084 354.111 444.233C354.111 432.344 363.722 422.79 375.573 422.79C387.404 422.79 397.016 432.344 397.016 444.233Z" fill="white"/>
<path d="M383.231 556.366C440.207 556.366 487.381 514.074 494.886 459.166C495.019 461.349 495.096 463.55 495.096 465.771C495.096 523.838 448.037 570.936 389.951 570.936C350.972 570.936 316.932 549.761 298.743 518.306H298.763C319.42 541.644 349.612 556.366 383.231 556.366Z" fill="#B2B1B0"/>
<path d="M397.016 444.233C397.016 432.344 387.404 422.79 375.573 422.79C363.722 422.79 354.111 432.344 354.111 444.233C354.111 456.084 363.722 465.695 375.573 465.695C387.404 465.695 397.016 456.084 397.016 444.233ZM451.368 465.771C451.368 499.677 423.857 527.17 389.951 527.17C356.007 527.17 328.476 499.677 328.476 465.771C328.476 431.808 356.007 404.296 389.951 404.296C423.857 404.296 451.368 431.808 451.368 465.771ZM427.667 483.136C427.667 477.22 422.881 472.396 416.984 472.396C411.029 472.396 406.243 477.22 406.243 483.136C406.243 489.052 411.029 493.857 416.984 493.857C422.881 493.857 427.667 489.052 427.667 483.136Z" fill="#063E51"/>
<path d="M284.672 465.771C284.672 407.627 331.826 360.53 389.951 360.53C445.816 360.53 491.497 404.105 494.886 459.166C487.381 514.074 440.207 556.366 383.231 556.366C349.612 556.366 319.42 541.644 298.763 518.306H298.743C289.783 502.855 284.672 484.897 284.672 465.771ZM389.951 527.17C423.857 527.17 451.368 499.677 451.368 465.771C451.368 431.808 423.857 404.296 389.951 404.296C356.007 404.296 328.476 431.808 328.476 465.771C328.476 499.677 356.007 527.17 389.951 527.17Z" fill="white"/>
<path d="M606.495 361.728C662.456 361.728 708.175 405.379 711.506 460.46C703.887 515.33 656.789 557.564 599.833 557.564C566.214 557.564 536.003 542.841 515.384 519.522L515.345 519.542C506.404 504.072 501.273 486.114 501.273 466.931C501.273 408.844 548.39 361.728 606.495 361.728ZM667.951 466.931C667.951 433.025 640.44 405.532 606.495 405.532C572.551 405.532 545.077 433.025 545.077 466.931C545.077 500.856 572.551 528.387 606.495 528.387C640.44 528.387 667.951 500.856 667.951 466.931Z" fill="white"/>
<path d="M613.598 445.469C613.598 433.599 603.987 423.969 592.137 423.969C580.323 423.969 570.693 433.599 570.693 445.469C570.693 457.301 580.323 466.893 592.137 466.893C603.987 466.893 613.598 457.301 613.598 445.469ZM644.269 484.334C644.269 478.38 639.444 473.593 633.566 473.593C627.593 473.593 622.807 478.38 622.807 484.334C622.807 490.25 627.593 495.055 633.566 495.055C639.444 495.055 644.269 490.25 644.269 484.334ZM667.951 466.931C667.951 500.856 640.44 528.387 606.495 528.387C572.551 528.387 545.077 500.856 545.077 466.931C545.077 433.025 572.551 405.532 606.495 405.532C640.44 405.532 667.951 433.025 667.951 466.931Z" fill="#063E51"/>
<path d="M613.598 445.469C613.598 457.301 603.987 466.893 592.137 466.893C580.323 466.893 570.693 457.301 570.693 445.469C570.693 433.599 580.323 423.969 592.137 423.969C603.987 423.969 613.598 433.599 613.598 445.469Z" fill="white"/>
<path d="M599.833 557.564C656.789 557.564 703.887 515.33 711.506 460.46C711.659 462.604 711.717 464.768 711.717 466.931C711.717 525.075 664.639 572.133 606.495 572.133C567.554 572.133 533.552 550.997 515.345 519.542L515.384 519.522C536.003 542.841 566.214 557.564 599.833 557.564Z" fill="#B2B1B0"/>
<path d="M644.269 484.334C644.269 490.25 639.444 495.055 633.566 495.055C627.593 495.055 622.807 490.25 622.807 484.334C622.807 478.38 627.593 473.593 633.566 473.593C639.444 473.593 644.269 478.38 644.269 484.334Z" fill="white"/>
<path d="M497.212 295.84C340.52 295.84 272.418 324.612 272.418 324.612C271.474 319.875 270.687 315.068 270.058 310.244H270.076C270.076 310.244 337.391 275.703 497.212 275.703C654.917 275.703 722.566 309.317 724.366 310.226C723.737 315.068 722.951 319.858 722.006 324.612C722.006 324.612 653.904 295.84 497.212 295.84Z" fill="#C39E05"/>
<path d="M272.417 324.612C272.417 324.612 340.52 295.84 497.212 295.84C653.904 295.84 722.006 324.612 722.006 324.612C720.433 332.688 718.423 340.606 715.994 348.368C660.389 336.586 582.918 329.262 497.212 329.262C411.507 329.262 334.052 336.586 278.431 348.368C276.001 340.606 273.991 332.688 272.417 324.612Z" fill="#E5B90D"/>
<path d="M270.076 310.244H270.058C268.747 300.367 268.083 290.299 268.083 280.073C268.083 153.517 370.656 50.9433 497.212 50.9433C623.786 50.9433 726.341 153.517 726.341 280.073C726.341 290.299 725.677 300.35 724.366 310.226C722.566 309.317 654.917 275.703 497.212 275.703C337.391 275.703 270.076 310.244 270.076 310.244Z" fill="#F1C906"/>
<path d="M314.024 164.322C314.024 164.322 316.874 193.793 276.67 197.953C221.328 123.366 225.873 36 225.873 36C225.873 36 248.247 113.909 314.042 164.304L314.024 164.322Z" fill="#F7B21C"/>
<path d="M276.669 197.953C316.874 193.793 314.024 164.322 314.024 164.322L314.042 164.304C328.218 175.194 344.422 184.791 362.864 192.045C362.864 192.045 362.864 206.886 348.705 224.68C334.511 242.457 312.468 236.165 312.468 236.165C298.379 224.226 286.563 211.29 276.669 197.953Z" fill="#C39E05"/>
<path d="M631.563 192.045C631.563 192.045 631.563 206.886 645.739 224.68C659.933 242.457 681.993 236.165 681.993 236.165C696.081 224.226 707.898 211.29 717.775 197.953C677.588 193.793 680.419 164.322 680.419 164.322L680.402 164.304C666.208 175.194 650.004 184.791 631.563 192.045Z" fill="#C39E05"/>
<path d="M717.775 197.953C773.117 123.366 768.572 36 768.572 36C768.572 36 746.198 113.909 680.402 164.304L680.42 164.322C680.42 164.322 677.589 193.793 717.775 197.953Z" fill="#F7B21C"/>
</g>
</g>
<defs>
<filter id="filter0_d_1_148" x="-4" y="0" width="1008" height="1008" filterUnits="userSpaceOnUse" color-interpolation-filters="sRGB">
<feFlood flood-opacity="0" result="BackgroundImageFix"/>
<feColorMatrix in="SourceAlpha" type="matrix" values="0 0 0 0 0 0 0 0 0 0 0 0 0 0 0 0 0 0 127 0" result="hardAlpha"/>
<feOffset dy="4"/>
<feGaussianBlur stdDeviation="2"/>
<feComposite in2="hardAlpha" operator="out"/>
<feColorMatrix type="matrix" values="0 0 0 0 0 0 0 0 0 0 0 0 0 0 0 0 0 0 0.25 0"/>
<feBlend mode="normal" in2="BackgroundImageFix" result="effect1_dropShadow_1_148"/>
<feBlend mode="normal" in="SourceGraphic" in2="effect1_dropShadow_1_148" result="shape"/>
</filter>
<linearGradient id="paint0_linear_1_148" x1="295.405" y1="908.819" x2="710.792" y2="315.585" gradientUnits="userSpaceOnUse">
<stop stop-color="#F8B133"/>
<stop offset="0.2362" stop-color="#F9B531"/>
<stop offset="0.5303" stop-color="#FBC02B"/>
<stop offset="0.8538" stop-color="#FED11A"/>
<stop offset="1" stop-color="#FFD907"/>
</linearGradient>
<clipPath id="clip0_1_148">
<rect width="756.52" height="960.623" fill="white" transform="translate(121.74 36)"/>
</clipPath>
</defs>
</svg>
