<svg width="1000" height="1000" viewBox="0 0 1000 1000" fill="none" xmlns="http://www.w3.org/2000/svg">
<g filter="url(#filter0_d_1_50)">
<g clip-path="url(#clip0_1_50)">
<path d="M506.542 194.063C506.542 194.063 747.212 144.117 747.212 452.895C747.212 761.665 747.212 987.73 747.212 987.73H656.386V770.34C656.386 770.34 588.277 797.998 506.542 797.998H493.473C411.739 797.998 343.619 770.34 343.619 770.34V987.73H252.802C252.802 987.73 252.802 761.665 252.802 452.895C252.802 144.117 493.473 194.063 493.473 194.063H506.542Z" fill="#D5418F"/>
<path d="M657.144 583.338C657.144 625.42 640.602 663.631 613.656 691.834C610.81 687.368 607.701 683.067 604.343 678.981C579.646 648.743 542.081 629.439 499.999 629.439C457.901 629.439 420.319 648.743 395.623 678.981C392.281 683.067 389.171 687.368 386.326 691.834C359.396 663.631 342.855 625.42 342.855 583.338C342.855 572.437 343.947 561.768 346.081 551.529C383.266 586.614 438.415 608.829 499.999 608.829C561.534 608.829 616.683 586.614 653.901 551.529C656.019 561.768 657.144 572.437 657.144 583.338Z" fill="#1E1F1D"/>
<path d="M499.999 629.439C542.081 629.439 579.646 648.743 604.343 678.981C578.489 707.218 541.303 724.966 499.999 724.966C458.679 724.966 421.51 707.218 395.623 678.981C420.319 648.743 457.901 629.439 499.999 629.439Z" fill="#E32D28"/>
<path d="M604.343 678.981C607.701 683.067 610.81 687.368 613.656 691.834C585.056 721.807 544.694 740.482 499.999 740.482C455.288 740.482 414.943 721.807 386.326 691.834C389.171 687.368 392.281 683.067 395.623 678.981C421.51 707.218 458.679 724.966 499.999 724.966C541.303 724.966 578.489 707.218 604.343 678.981Z" fill="#A3201B"/>
<path d="M253.76 454.139C257.193 476.504 257.961 489.859 257.961 489.895C249.577 465.062 241.532 440.266 234.112 415.058C232.289 408.747 230.501 402.418 228.838 396C228.034 392.746 227.176 389.796 226.461 385.863C225.853 382.109 225.621 378.122 226.229 373.938C226.783 369.701 228.374 365.357 231.038 361.674C233.701 358.009 237.241 355.203 240.888 353.29C244.535 351.359 248.325 350.143 252.044 349.392C255.816 348.605 259.463 348.23 263.343 348.284H263.378H361.403C361.403 348.284 322.93 359.136 263.253 362.085H263.093C255.423 362.425 246.395 365.035 242.855 370.095C241.156 372.383 240.28 375.351 240.191 378.855C240.066 382.377 240.799 385.988 241.693 390.368L246.645 414.307C249.702 429.503 252.08 442.947 253.76 454.139Z" fill="white"/>
<path d="M754.341 470.711C753.93 471.141 747.727 479.168 738.341 492.362C733.442 499.137 727.632 507.236 720.82 515.979C714.009 524.703 706.232 534.16 696.739 542.67C687.281 551.18 677.377 557.044 667.383 560.28C662.342 561.924 657.497 562.836 652.544 563.498C647.7 564.249 643.194 564.803 639.011 565.232C630.716 566.072 623.886 566.394 619.113 566.537L611.712 566.716C619.506 569.219 627.534 571.006 635.614 572.097C639.655 572.651 643.695 573.027 647.736 573.259C649.773 573.348 651.794 573.402 653.832 573.455L656.889 573.492C657.98 573.492 659.034 573.438 660.125 573.402C668.706 573.027 677.323 570.953 685.208 567.395C693.056 563.909 700.154 559.01 706.393 553.486C718.89 542.241 728.097 528.6 735.713 514.512C743.311 500.353 749.3 485.64 754.341 470.711ZM257.961 489.895C257.961 489.859 257.193 476.504 253.76 454.139C252.08 442.947 249.702 429.503 246.645 414.307L241.693 390.368C240.799 385.988 240.066 382.377 240.191 378.855C240.28 375.351 241.156 372.383 242.855 370.095C246.395 365.035 255.423 362.425 263.093 362.085H263.253C322.93 359.136 361.403 348.284 361.403 348.284H263.378H263.343C259.463 348.23 255.816 348.605 252.044 349.392C248.325 350.143 244.535 351.359 240.888 353.29C237.241 355.203 233.701 358.009 231.038 361.674C228.374 365.357 226.783 369.701 226.229 373.938C225.621 378.122 225.853 382.109 226.461 385.863C227.176 389.796 228.034 392.746 228.838 396C230.501 402.418 232.289 408.747 234.112 415.058C241.532 440.266 249.577 465.062 257.961 489.895ZM520.928 395.768C520.928 395.768 524.146 376.674 500.01 376.674C475.839 376.674 479.075 395.768 479.075 395.768C479.075 395.768 479.075 429.646 479.075 474.716C479.075 519.822 432.343 591.227 338.931 591.227C245.519 591.227 218.148 421.565 208.476 376.674C198.804 331.8 245.519 328.153 245.519 328.153H437.188H562.815H754.466C754.466 328.153 801.182 331.8 791.527 376.674C781.856 421.565 754.466 591.227 661.055 591.227C567.643 591.227 520.928 519.822 520.928 474.716C520.928 429.646 520.928 395.768 520.928 395.768Z" fill="#1E1F1D"/>
<path d="M611.711 566.716L619.113 566.537C623.886 566.394 630.716 566.072 639.011 565.232C643.194 564.803 647.7 564.249 652.544 563.498C657.497 562.836 662.342 561.924 667.383 560.28C677.377 557.044 687.281 551.18 696.739 542.67C706.232 534.16 714.009 524.703 720.82 515.979C727.632 507.236 733.442 499.137 738.341 492.362C747.727 479.168 753.93 471.141 754.341 470.712C749.3 485.64 743.31 500.353 735.712 514.512C728.097 528.6 718.89 542.241 706.393 553.486C700.153 559.01 693.056 563.909 685.207 567.395C677.323 570.953 668.706 573.027 660.125 573.402C659.034 573.438 657.979 573.492 656.889 573.492L653.832 573.456C651.794 573.402 649.773 573.349 647.735 573.259C643.695 573.027 639.655 572.651 635.614 572.097C627.534 571.006 619.506 569.219 611.711 566.716Z" fill="white"/>
<path d="M500.014 278.483C536.056 273.002 561.687 260.085 578.964 247.555C580.553 258.883 581.429 271.312 581.429 284.901V284.921C559.791 293.6 529.903 297.94 500.014 297.94V297.92V278.483Z" fill="#E3C724"/>
<path d="M608.71 217.564C608.71 217.564 600.031 232.274 578.964 247.555C567.371 163.532 518.453 139.226 516.721 138.391C560.444 144.829 596.099 176.164 608.751 217.544L608.71 217.564Z" fill="#A7C833"/>
<path d="M491.294 90.5112C491.294 85.7031 495.186 81.791 500.014 81.791C502.439 81.791 504.598 82.769 506.167 84.3379C507.736 85.9272 508.714 88.1069 508.714 90.5112V137.494C505.841 137.27 502.948 137.168 500.014 137.168C497.08 137.168 494.167 137.27 491.294 137.494V90.5112Z" fill="#E6362C"/>
<path d="M418.66 277.994C418.599 280.256 418.558 282.558 418.558 284.901C411.448 282.049 405.254 278.727 400.242 274.938C406.558 276.14 412.69 277.159 418.66 277.994Z" fill="#C72C28"/>
<path d="M296.68 67.1626C296.68 46.6254 313.285 30 333.842 30C338.651 30 343.215 30.9375 347.493 32.6079L489.949 64.0454C491.314 59.7461 495.287 56.6088 500.014 56.6088C504.741 56.6088 508.714 59.7461 510.038 64.0454L652.555 32.6079C656.772 30.9375 661.357 30 666.165 30C686.702 30 703.348 46.6254 703.348 67.1626C703.348 87.6997 686.702 104.325 666.165 104.325C661.357 104.325 656.772 103.388 652.555 101.717L510.038 70.2592C508.714 74.5786 504.741 77.7163 500.014 77.7163C495.287 77.7163 491.314 74.5786 489.949 70.2592L347.493 101.717C343.215 103.388 338.651 104.325 333.842 104.325C313.285 104.325 296.68 87.6997 296.68 67.1626Z" fill="#E3AB28"/>
<path d="M418.66 277.994C421.35 179.343 481.392 139.654 483.307 138.391C485.935 138.003 488.604 137.698 491.294 137.494C494.166 137.27 497.08 137.168 500.014 137.168V278.483C477.236 281.947 450.301 282.436 418.66 277.994Z" fill="#E3AB28"/>
<path d="M581.429 284.901C581.429 271.311 580.553 258.883 578.964 247.555C600.031 232.274 608.71 217.564 608.71 217.564L608.751 217.544C611.99 228.078 613.722 239.263 613.722 250.856C613.722 265.749 600.927 277.098 581.429 284.921V284.901H581.429Z" fill="#9DC42B"/>
<path d="M516.721 138.391C518.453 139.226 567.371 163.532 578.964 247.555C561.687 260.085 536.056 273.002 500.014 278.483V137.168C502.948 137.168 505.841 137.27 508.714 137.494C511.423 137.698 514.072 138.003 516.721 138.391Z" fill="#FADF21"/>
<path d="M386.326 250.856C386.326 193.747 428.439 146.459 483.307 138.391C481.392 139.654 421.35 179.343 418.66 277.994C412.69 277.159 406.558 276.14 400.242 274.938C391.481 268.337 386.326 260.31 386.326 250.856Z" fill="#E6362C"/>
<path d="M418.558 284.901C418.558 282.558 418.599 280.256 418.66 277.994C450.301 282.435 477.236 281.947 500.014 278.483V297.92V297.94C470.084 297.94 440.175 293.6 418.558 284.901Z" fill="#CA9220"/>
</g>
</g>
<defs>
<filter id="filter0_d_1_50" x="-4" y="0" width="1008" height="1008" filterUnits="userSpaceOnUse" color-interpolation-filters="sRGB">
<feFlood flood-opacity="0" result="BackgroundImageFix"/>
<feColorMatrix in="SourceAlpha" type="matrix" values="0 0 0 0 0 0 0 0 0 0 0 0 0 0 0 0 0 0 127 0" result="hardAlpha"/>
<feOffset dy="4"/>
<feGaussianBlur stdDeviation="2"/>
<feComposite in2="hardAlpha" operator="out"/>
<feColorMatrix type="matrix" values="0 0 0 0 0 0 0 0 0 0 0 0 0 0 0 0 0 0 0.25 0"/>
<feBlend mode="normal" in2="BackgroundImageFix" result="effect1_dropShadow_1_50"/>
<feBlend mode="normal" in="SourceGraphic" in2="effect1_dropShadow_1_50" result="shape"/>
</filter>
<clipPath id="clip0_1_50">
<rect width="585.684" height="957.73" fill="white" transform="translate(207.157 30)"/>
</clipPath>
</defs>
</svg>
