<svg width="1000" height="1000" viewBox="0 0 1000 1000" fill="none" xmlns="http://www.w3.org/2000/svg">
<g filter="url(#filter0_d_1_321)">
<g clip-path="url(#clip0_1_321)">
<path d="M382.356 737.908C371.994 820.654 320.266 908.593 320.266 908.593C320.266 908.593 387.504 895.663 392.672 929.28C397.852 962.899 359.065 968.09 359.065 968.09H219.398C185.779 973.261 185.779 947.381 185.779 947.381C185.779 947.381 185.779 489.604 185.779 399.098C185.779 308.569 183.178 259.422 219.398 233.553C255.619 207.692 628.037 117.165 628.037 117.165C628.037 117.165 703.045 97.0625 690.102 14C690.102 14 778.455 135.283 691.627 267.17C691.627 267.17 744.423 315.034 744.423 535.509C744.423 755.996 744.423 906.001 744.423 906.001C744.423 906.001 814.262 908.593 814.262 939.622C814.262 970.661 770.283 968.767 731.506 968.767C692.693 968.767 599.598 968.767 599.598 968.767C599.598 968.767 571.149 968.08 565.97 916.362C560.799 864.623 553.039 714.607 553.039 714.607L382.356 737.908Z" fill="#5DC2DB"/>
<path d="M626.881 458.898V526.522C626.881 526.522 625.856 607.723 584.492 666.147C584.492 666.147 581.27 661.324 574.51 654.601C559.145 639.347 525.491 614.391 469.73 614.391C413.337 614.391 379.571 639.925 364.448 655.141C358.041 661.566 354.987 666.147 354.987 666.147L354.968 666.166C313.641 607.742 312.636 526.522 312.636 526.522V458.898H341.578V470.538V585.039L392.999 485.735L416.447 519.259L441.403 489.553L469.73 521.941L494.24 489.553L519.215 519.259L542.681 485.735L594.046 585.039V470.538V458.898H626.881V458.898Z" fill="#1E1F1D"/>
<path d="M594.046 470.538V585.039L542.681 485.735L519.215 519.259L494.24 489.553L469.73 521.941L441.403 489.553L416.447 519.259L392.999 485.735L341.578 585.039V470.538H594.046Z" fill="white"/>
<path d="M594.046 458.898V470.538H341.578V458.898H469.73H594.046Z" fill="#C8C7C7"/>
<path d="M574.51 654.601C581.27 661.324 584.492 666.147 584.492 666.147C561.286 698.963 525.36 724.571 469.73 724.571C414.119 724.571 378.193 698.963 354.968 666.166L354.987 666.148C354.987 666.148 358.041 661.566 364.448 655.141C386.201 684.157 419.24 706.357 469.265 706.357C519.624 706.357 552.719 683.896 574.472 654.619L574.51 654.601Z" fill="#9C1C1B"/>
<path d="M574.51 654.601L574.472 654.619C552.719 683.896 519.624 706.357 469.265 706.357C419.24 706.357 386.201 684.157 364.448 655.141C379.571 639.925 413.336 614.391 469.73 614.391C525.491 614.391 559.145 639.347 574.51 654.601Z" fill="#E43333"/>
<path d="M382.205 400.966C395.375 396.257 411.059 392.221 429.611 389.672C443.064 387.831 458.04 386.769 474.644 386.769C491.249 386.769 506.189 387.831 519.607 389.672C538.159 392.221 553.843 396.257 567.013 400.966C610.206 416.438 626.279 439.344 627.979 441.964C625.359 438.884 594.522 405.958 474.644 405.958C354.696 405.958 323.859 438.884 321.204 441.964C322.903 439.344 338.977 416.438 382.205 400.966Z" fill="#1E1F1D"/>
<path d="M604.718 309.376C604.718 340.886 593.495 369.775 574.837 392.292L537.663 378.874C563.756 359.543 580.679 328.494 580.679 293.551C580.679 234.957 533.202 187.445 474.644 187.445L474.715 179.267C546.479 179.302 604.718 237.577 604.718 309.376Z" fill="#EEEDED"/>
<path d="M537.663 378.874L574.837 392.292C572.359 395.301 569.739 398.169 567.013 400.931V400.966C553.843 396.257 538.159 392.221 519.607 389.672C526.015 386.663 532.034 383.052 537.663 378.874Z" fill="#B1B1B0"/>
<path d="M580.679 293.551C580.679 328.494 563.756 359.543 537.663 378.874C532.034 383.052 526.015 386.663 519.607 389.672C506.189 387.831 491.249 386.769 474.644 386.769C458.04 386.769 443.064 387.831 429.611 389.672C423.203 386.698 417.148 383.052 411.519 378.874C385.427 359.543 368.504 328.494 368.504 293.551C368.504 234.957 416.051 187.445 474.644 187.445C533.202 187.445 580.679 234.957 580.679 293.551ZM531.22 276.45C531.22 245.189 505.871 219.84 474.644 219.84C443.347 219.84 418.033 245.189 418.033 276.45C418.033 307.712 443.347 333.061 474.644 333.061C505.871 333.061 531.22 307.712 531.22 276.45Z" fill="#1E1F1D"/>
<path d="M474.644 219.84C505.871 219.84 531.22 245.189 531.22 276.451C531.22 307.712 505.871 333.061 474.644 333.061C443.347 333.061 418.033 307.712 418.033 276.451C418.033 245.189 443.347 219.84 474.644 219.84ZM499.781 269.37C499.781 255.491 488.487 244.197 474.644 244.197C460.695 244.197 449.472 255.491 449.472 269.37C449.472 283.283 460.695 294.542 474.644 294.542C488.487 294.542 499.781 283.283 499.781 269.37Z" fill="white"/>
<path d="M474.644 244.198C488.487 244.198 499.781 255.491 499.781 269.37C499.781 283.283 488.487 294.542 474.644 294.542C460.695 294.542 449.472 283.283 449.472 269.37C449.472 255.491 460.695 244.198 474.644 244.198Z" fill="#1E1F1D"/>
<path d="M474.715 179.267L474.644 187.445C416.051 187.445 368.503 234.957 368.503 293.551C368.503 328.494 385.427 359.544 411.519 378.874L374.31 392.292C355.687 369.811 344.5 340.886 344.5 309.376C344.5 237.542 402.774 179.267 474.644 179.267C474.68 179.267 474.68 179.267 474.715 179.267Z" fill="#EEEDED"/>
<path d="M411.519 378.874C417.148 383.052 423.202 386.698 429.61 389.672C411.059 392.221 395.375 396.257 382.205 400.966C379.443 398.205 376.788 395.302 374.31 392.292L411.519 378.874Z" fill="#B1B1B0"/>
</g>
</g>
<defs>
<filter id="filter0_d_1_321" x="-4" y="0" width="1008" height="1008" filterUnits="userSpaceOnUse" color-interpolation-filters="sRGB">
<feFlood flood-opacity="0" result="BackgroundImageFix"/>
<feColorMatrix in="SourceAlpha" type="matrix" values="0 0 0 0 0 0 0 0 0 0 0 0 0 0 0 0 0 0 127 0" result="hardAlpha"/>
<feOffset dy="4"/>
<feGaussianBlur stdDeviation="2"/>
<feComposite in2="hardAlpha" operator="out"/>
<feColorMatrix type="matrix" values="0 0 0 0 0 0 0 0 0 0 0 0 0 0 0 0 0 0 0.25 0"/>
<feBlend mode="normal" in2="BackgroundImageFix" result="effect1_dropShadow_1_321"/>
<feBlend mode="normal" in="SourceGraphic" in2="effect1_dropShadow_1_321" result="shape"/>
</filter>
<clipPath id="clip0_1_321">
<rect width="628.523" height="954.789" fill="white" transform="translate(185.738 14)"/>
</clipPath>
</defs>
</svg>
