<svg width="1000" height="1000" viewBox="0 0 1000 1000" fill="none" xmlns="http://www.w3.org/2000/svg">
<g filter="url(#filter0_d_1_191)">
<g clip-path="url(#clip0_1_191)">
<path d="M617.857 951.935C583.094 961.336 583.094 961.336 583.094 961.336L611.064 950.518C611.064 950.518 611.806 938.799 588.359 943.804C577.92 946.018 562.085 951.371 547.725 957.771L602.687 744.711H568.688L530.549 966.476C520.959 972.101 514.279 977.845 514.279 982.615H634.479C634.479 982.615 652.629 942.556 617.857 951.935Z" fill="#566EB3"/>
<path d="M384.162 951.935C418.958 961.336 418.958 961.336 418.958 961.336L390.977 950.518C390.977 950.518 390.222 938.799 413.661 943.804C424.099 946.018 439.944 951.371 454.294 957.771L399.344 744.711H433.353L471.477 966.476C481.082 972.101 487.74 977.845 487.74 982.615H367.54C367.54 982.615 349.409 942.556 384.162 951.935Z" fill="#566EB3"/>
<path d="M212.761 261.473C212.741 261.492 212.741 261.492 212.741 261.492C212.741 261.492 212.741 261.473 212.761 261.473Z" fill="#4081C2"/>
<path d="M789.248 261.473C789.268 261.473 789.268 261.492 789.268 261.492C789.268 261.492 789.268 261.492 789.248 261.473Z" fill="#66A0D7"/>
<path d="M271.177 155.427C341.015 58.543 500.995 45 500.995 45C500.995 45 660.975 58.543 730.832 155.427C730.832 155.427 688.001 142.539 674.518 145.612C674.518 145.612 746.239 178.29 789.248 261.473C788.356 260.58 759.584 231.927 726.311 225.285C726.311 225.285 784.886 266.906 816.434 376.738C815.442 375.509 783.854 335.633 750.879 333.412C750.879 333.412 816.453 479.888 816.453 612.841C816.453 673.498 789.704 730.387 742.868 774.348L742.848 774.368C689.964 812.301 620.048 837.483 538.055 841.905C344.306 852.375 204.79 740.52 197.374 602.808C194.578 551.293 201.161 497.397 210.521 449.986C210.541 449.947 210.541 449.907 210.541 449.867C229.1 382.607 251.13 333.412 251.13 333.412C218.155 335.633 186.527 375.509 185.536 376.738C217.104 266.906 275.678 225.285 275.678 225.285C242.405 231.927 213.653 260.58 212.761 261.473C255.751 178.29 327.511 145.612 327.511 145.612C313.988 142.539 271.177 155.427 271.177 155.427Z" fill="#66A0D7"/>
<path d="M538.055 841.905C620.048 837.483 689.964 812.301 742.848 774.368C687.03 826.716 602.658 860.684 500.995 860.684C313.988 860.684 185.516 745.775 185.516 612.841C185.516 556.983 197.096 498.746 210.521 449.986C201.161 497.397 194.578 551.293 197.374 602.808C204.79 740.52 344.306 852.375 538.055 841.905Z" fill="#4081C2"/>
<path d="M45.6212 653.35C54.2843 645.55 67.318 635.467 80.8785 630.367C102.914 569.221 136.825 511.911 186.239 468.964C207.51 450.467 232.781 432.354 259.958 423.561C278.939 417.425 286.961 447.229 268.096 453.318C266.75 453.744 265.419 454.283 264.097 454.808C263.135 455.239 262.154 455.653 261.202 456.101C258.441 457.365 255.726 458.709 253.037 460.114C236.704 468.559 222.413 478.62 209.355 489.663C164.892 527.316 133.76 577.705 113.12 631.749C113.661 632.105 114.189 632.472 114.724 632.861C128.429 643.277 129.334 661.515 132.514 676.893C135.618 691.676 173.096 726.42 147.352 737.09C120.473 748.204 115.837 698.191 98.2838 699.119C84.7735 699.826 90.9 727.434 91.9371 734.899C94.4674 752.764 101.927 773.678 95.2501 791.318C85.8482 816.075 55.6813 800.828 42.5387 788.554C26.6803 773.737 19.5294 749.839 17.6715 728.768C15.19 700.474 24.2945 672.543 45.6212 653.35Z" fill="#66A0D7"/>
<path d="M954.378 634.119C945.715 626.309 932.68 616.259 919.122 611.138C897.084 550.002 863.173 492.67 813.75 449.734C792.488 431.264 767.218 413.134 740.042 404.347C721.051 398.194 713.049 427.999 731.893 434.097C733.258 434.529 734.58 435.052 735.888 435.592C736.864 435.998 737.846 436.435 738.784 436.86C741.549 438.124 744.274 439.49 746.953 440.881C763.295 449.334 777.585 459.405 790.643 470.443C835.09 508.074 866.238 558.484 886.871 612.519C886.349 612.885 885.799 613.241 885.274 613.646C871.572 624.047 870.675 642.285 867.485 657.679C864.381 672.446 826.886 707.189 852.649 717.859C879.517 728.972 884.136 678.961 901.717 679.888C915.215 680.613 909.11 708.202 908.046 715.672C905.533 733.544 898.062 754.448 904.751 772.076C914.152 796.834 944.316 781.602 957.459 769.339C973.33 754.497 980.468 730.613 982.326 709.537C984.82 681.26 975.687 653.312 954.378 634.119Z" fill="#66A0D7"/>
<path d="M656.899 685.516C624.943 730.646 575.508 765.883 499.011 765.883C422.463 765.883 373.028 730.646 341.071 685.516L341.097 685.491C341.097 685.491 345.3 679.186 354.09 670.345C384.048 710.272 429.485 740.819 498.345 740.819C567.615 740.819 613.154 709.939 643.086 669.628L643.138 669.602C652.44 678.853 656.874 685.491 656.874 685.491L656.899 685.516Z" fill="#9C1C1B"/>
<path d="M670.046 400.312V416.329H322.646V400.312H499.011H670.046Z" fill="#C8C7C7"/>
<path d="M643.138 669.602C622.021 648.639 575.688 614.298 499.011 614.298C421.387 614.298 374.874 649.433 354.09 670.345C345.3 679.186 341.097 685.491 341.097 685.491L341.071 685.516C284.179 605.124 282.795 493.364 282.795 493.364V400.312H322.646V416.329V573.859L393.376 437.241L425.641 483.344L460.007 442.495L499.011 487.034L532.685 442.495L567.077 483.344L599.367 437.241L670.046 573.859V416.329V400.312H715.201V493.364C715.201 493.364 713.792 605.124 656.899 685.516L656.874 685.491C656.874 685.491 652.44 678.853 643.138 669.602Z" fill="#1E1F1D"/>
<path d="M532.685 442.495L499.011 487.034L460.007 442.495L425.641 483.344L393.376 437.241L322.646 573.859V416.329H670.046V573.859L599.367 437.241L567.077 483.344L532.685 442.495Z" fill="white"/>
<path d="M499.011 614.298C575.688 614.298 622.021 648.639 643.138 669.602L643.086 669.628C613.154 709.939 567.615 740.819 498.345 740.819C429.485 740.819 384.048 710.272 354.09 670.345C374.874 649.433 421.387 614.298 499.011 614.298Z" fill="#E43333"/>
<path d="M243.888 252.122C243.323 255.994 243.539 259.699 244.104 263.189C244.769 266.844 245.567 269.586 246.314 272.609C247.86 278.575 249.521 284.457 251.216 290.322C258.112 313.751 265.589 336.781 273.382 359.86C273.348 359.312 272.601 346.983 269.477 326.645C267.915 316.243 265.705 303.748 262.864 289.625L258.261 267.376C257.43 263.305 256.749 259.948 256.865 256.675C256.948 253.418 257.763 250.66 259.342 248.533C262.631 243.831 271.022 241.405 278.151 241.089H278.3C333.764 238.348 369.522 228.262 369.522 228.262H278.417H278.383C274.778 228.212 271.388 228.561 267.882 229.292C264.426 229.99 260.903 231.12 257.513 232.914C254.124 234.692 250.834 237.301 248.358 240.707C245.883 244.13 244.404 248.168 243.888 252.122ZM690.161 418.98C701.775 408.528 710.333 395.851 717.411 382.757C724.473 369.597 730.039 355.922 734.725 342.048C734.343 342.447 728.577 349.907 719.854 362.17C715.3 368.467 709.901 375.994 703.57 384.12C697.239 392.228 690.011 401.018 681.188 408.927C672.398 416.836 663.193 422.287 653.904 425.294C649.219 426.823 644.716 427.67 640.113 428.285C635.611 428.983 631.423 429.498 627.535 429.897C619.825 430.678 613.478 430.977 609.041 431.109L602.162 431.276C609.407 433.602 616.867 435.264 624.378 436.277C628.133 436.792 631.888 437.141 635.644 437.357C637.538 437.44 639.415 437.49 641.31 437.54L644.151 437.573C645.165 437.573 646.145 437.524 647.158 437.49C655.134 437.141 663.143 435.214 670.471 431.907C677.765 428.667 684.362 424.114 690.161 418.98ZM348.636 454.056C261.817 454.056 236.378 296.371 227.389 254.648C218.4 212.941 261.817 209.552 261.817 209.552H439.957H556.718H734.841C734.841 209.552 778.259 212.941 769.286 254.648C760.297 296.371 734.841 454.056 648.023 454.056C561.204 454.056 517.786 387.692 517.786 345.77C517.786 303.881 517.786 272.394 517.786 272.394C517.786 272.394 520.777 254.648 498.346 254.648C475.881 254.648 478.888 272.394 478.888 272.394C478.888 272.394 478.888 303.881 478.888 345.77C478.888 387.692 435.454 454.056 348.636 454.056Z" fill="#1E1F1D"/>
<path d="M717.411 382.757C710.333 395.851 701.775 408.528 690.161 418.98C684.362 424.114 677.765 428.667 670.471 431.907C663.143 435.214 655.134 437.141 647.158 437.49C646.145 437.524 645.165 437.573 644.151 437.573L641.31 437.54C639.415 437.49 637.538 437.44 635.644 437.357C631.888 437.141 628.133 436.792 624.378 436.277C616.867 435.264 609.407 433.602 602.162 431.276L609.041 431.109C613.478 430.977 619.825 430.678 627.535 429.897C631.423 429.498 635.611 428.983 640.114 428.285C644.716 427.67 649.219 426.823 653.905 425.294C663.193 422.287 672.398 416.836 681.188 408.927C690.011 401.018 697.239 392.228 703.57 384.12C709.901 375.994 715.301 368.467 719.854 362.17C728.577 349.907 734.343 342.447 734.725 342.048C730.039 355.922 724.473 369.597 717.411 382.757Z" fill="white"/>
<path d="M244.104 263.189C243.539 259.699 243.324 255.994 243.889 252.122C244.404 248.168 245.883 244.13 248.358 240.707C250.834 237.301 254.124 234.692 257.514 232.914C260.903 231.12 264.426 229.99 267.882 229.292C271.388 228.561 274.778 228.212 278.383 228.262H278.417H369.522C369.522 228.262 333.765 238.348 278.3 241.089H278.151C271.022 241.405 262.631 243.831 259.342 248.533C257.763 250.66 256.949 253.418 256.866 256.675C256.749 259.948 257.431 263.305 258.262 267.376L262.864 289.625C265.705 303.748 267.915 316.243 269.477 326.645C272.601 346.983 273.348 359.312 273.382 359.86C265.589 336.781 258.112 313.751 251.216 290.322C249.521 284.457 247.86 278.575 246.314 272.609C245.567 269.586 244.769 266.844 244.104 263.189Z" fill="white"/>
</g>
</g>
<defs>
<filter id="filter0_d_1_191" x="-4" y="0" width="1008" height="1008" filterUnits="userSpaceOnUse" color-interpolation-filters="sRGB">
<feFlood flood-opacity="0" result="BackgroundImageFix"/>
<feColorMatrix in="SourceAlpha" type="matrix" values="0 0 0 0 0 0 0 0 0 0 0 0 0 0 0 0 0 0 127 0" result="hardAlpha"/>
<feOffset dy="4"/>
<feGaussianBlur stdDeviation="2"/>
<feComposite in2="hardAlpha" operator="out"/>
<feColorMatrix type="matrix" values="0 0 0 0 0 0 0 0 0 0 0 0 0 0 0 0 0 0 0.25 0"/>
<feBlend mode="normal" in2="BackgroundImageFix" result="effect1_dropShadow_1_191"/>
<feBlend mode="normal" in="SourceGraphic" in2="effect1_dropShadow_1_191" result="shape"/>
</filter>
<clipPath id="clip0_1_191">
<rect width="965.453" height="937.615" fill="white" transform="translate(17.2737 45)"/>
</clipPath>
</defs>
</svg>
