<svg width="1000" height="1000" viewBox="0 0 1000 1000" fill="none" xmlns="http://www.w3.org/2000/svg">
<g filter="url(#filter0_d_1_217)">
<g clip-path="url(#clip0_1_217)">
<path d="M262.545 935.521C262.545 935.521 263.299 960.951 236.577 963.139C231.807 959.696 228.686 954.064 228.686 947.68C228.686 937.135 237.258 928.562 247.768 928.562C253.722 928.562 259.03 931.288 262.545 935.521Z" fill="#F2AABB"/>
<path d="M358.313 812.637V442.944H404.225V822.105C388.191 814.107 358.313 812.637 358.313 812.637Z" fill="#EA6379"/>
<path d="M358.313 830.391V812.637C358.313 812.637 388.191 814.107 404.225 822.105V841.977C390.02 835.628 374.561 831.611 358.313 830.391Z" fill="#C83C5A"/>
<path d="M262.545 935.521C265.271 938.82 266.921 943.053 266.921 947.68C266.921 958.261 258.349 966.798 247.768 966.798C243.571 966.798 239.733 965.434 236.577 963.139C263.299 960.951 262.545 935.521 262.545 935.521Z" fill="#CF4162"/>
<path d="M284.066 885.808C284.066 885.808 284.856 911.202 258.134 913.39C253.327 909.982 250.207 904.315 250.207 897.967C250.207 887.386 258.815 878.849 269.36 878.849C275.279 878.849 280.587 881.539 284.102 885.808H284.066Z" fill="#F2AABB"/>
<path d="M284.102 885.808C286.828 889.107 288.478 893.34 288.478 897.967C288.478 908.512 279.906 917.084 269.36 917.084C265.164 917.084 261.29 915.721 258.134 913.39C284.855 911.202 284.066 885.808 284.066 885.808H284.102Z" fill="#CF4162"/>
<path d="M486.47 968.734C486.47 974.258 486.076 979.746 485.466 985.09H209.927C209.353 979.746 208.922 974.258 208.922 968.734C208.922 892.084 271.082 829.996 347.732 829.996C351.283 829.996 354.798 830.14 358.313 830.391C374.561 831.611 390.02 835.628 404.225 841.977C452.682 863.605 486.47 912.207 486.47 968.734ZM288.478 897.967C288.478 893.34 286.828 889.107 284.102 885.808C280.587 881.539 275.279 878.849 269.36 878.849C258.815 878.849 250.206 887.386 250.206 897.967C250.206 904.315 253.327 909.982 258.134 913.39C261.29 915.722 265.164 917.084 269.36 917.084C279.906 917.084 288.478 908.512 288.478 897.967ZM266.921 947.68C266.921 943.053 265.271 938.82 262.545 935.521C259.03 931.288 253.722 928.562 247.768 928.562C237.258 928.562 228.686 937.135 228.686 947.68C228.686 954.064 231.807 959.696 236.577 963.139C239.733 965.434 243.571 966.798 247.768 966.798C258.349 966.798 266.921 958.261 266.921 947.68Z" fill="#EA6379"/>
<path d="M700.477 885.808C697.751 889.107 696.102 893.34 696.102 897.967C696.102 908.512 704.674 917.084 715.255 917.084C719.416 917.084 723.289 915.721 726.446 913.39C699.688 911.202 700.477 885.808 700.477 885.808Z" fill="#CF4162"/>
<path d="M700.478 885.808C700.478 885.808 699.689 911.202 726.446 913.39C731.216 909.982 734.337 904.315 734.337 897.967C734.337 887.386 725.765 878.849 715.255 878.849C709.301 878.849 703.993 881.539 700.478 885.808Z" fill="#F2AABB"/>
<path d="M626.231 442.944H580.355V822.105C596.424 814.107 626.231 812.637 626.231 812.637V442.944Z" fill="#EA6379"/>
<path d="M696.102 897.967C696.102 893.34 697.751 889.107 700.477 885.808C703.993 881.539 709.301 878.849 715.255 878.849C725.765 878.849 734.337 887.386 734.337 897.967C734.337 904.315 731.216 909.982 726.446 913.39C723.29 915.722 719.416 917.084 715.255 917.084C704.674 917.084 696.102 908.512 696.102 897.967ZM736.812 928.562C747.321 928.562 755.894 937.135 755.894 947.68C755.894 954.064 752.773 959.696 748.003 963.139C744.846 965.434 741.008 966.798 736.812 966.798C726.231 966.798 717.658 958.261 717.658 947.68C717.658 943.053 719.308 938.82 722.034 935.521C725.549 931.288 730.858 928.562 736.812 928.562ZM774.617 985.09C775.227 979.746 775.657 974.258 775.657 968.734C775.657 892.084 713.498 829.996 636.848 829.996C633.296 829.996 629.746 830.14 626.231 830.391C610.018 831.611 594.559 835.628 580.355 841.977C531.897 863.605 498.146 912.207 498.146 968.734C498.146 974.258 498.504 979.746 499.15 985.09H774.617Z" fill="#EA6379"/>
<path d="M722.034 935.521C719.308 938.82 717.658 943.053 717.658 947.68C717.658 958.261 726.231 966.798 736.812 966.798C741.008 966.798 744.846 965.434 748.003 963.139C721.245 960.951 722.034 935.521 722.034 935.521Z" fill="#CF4162"/>
<path d="M580.355 822.105V841.977C594.559 835.628 610.018 831.611 626.231 830.391V812.637C626.231 812.637 596.424 814.107 580.355 822.105Z" fill="#C83C5A"/>
<path d="M755.894 947.68C755.894 937.135 747.321 928.562 736.812 928.562C730.858 928.562 725.549 931.288 722.034 935.521C722.034 935.521 721.245 960.951 748.003 963.139C752.773 959.696 755.894 954.064 755.894 947.68Z" fill="#F2AABB"/>
<path d="M652.515 143.102C685.35 108.951 717.754 98.5546 717.754 98.5546C675.516 102.664 641.19 111.768 613.995 122.264C588.272 110.889 560.517 103.238 531.396 100.139C600.776 43.3769 659.602 21 659.602 21C359.087 75.9365 288.022 198.746 288.022 198.746V198.77C247.92 246.94 223.755 308.859 223.755 376.439C223.755 529.925 348.192 654.339 501.666 654.339C655.153 654.339 779.574 529.925 779.574 376.439C779.574 278.592 728.939 192.615 652.515 143.102Z" fill="#EA6379"/>
<path d="M269.043 310.955C269.043 267.767 304.027 232.783 347.191 232.783C390.306 232.783 425.29 267.767 425.29 310.955C425.29 354.07 390.306 389.029 347.191 389.029C304.027 389.029 269.043 354.07 269.043 310.955ZM395.175 333.036C395.175 325.514 389.064 319.378 381.59 319.378C374.019 319.378 367.908 325.514 367.908 333.036C367.908 340.558 374.019 346.669 381.59 346.669C389.064 346.669 395.175 340.558 395.175 333.036ZM356.174 283.567C356.174 268.449 343.953 256.301 328.932 256.301C313.838 256.301 301.617 268.449 301.617 283.567C301.617 298.637 313.838 310.858 328.932 310.858C343.953 310.858 356.174 298.637 356.174 283.567Z" fill="#063E51"/>
<path d="M347.191 177.131C418.229 177.131 476.316 232.54 480.625 302.556C471.082 372.377 411.096 426.156 338.645 426.156C295.896 426.156 257.504 407.434 231.236 377.758H231.211C219.818 358.111 213.318 335.276 213.318 310.955C213.318 237.02 273.279 177.131 347.191 177.131ZM425.29 310.955C425.29 267.767 390.306 232.783 347.191 232.783C304.027 232.783 269.043 267.767 269.043 310.955C269.043 354.07 304.027 389.029 347.191 389.029C390.306 389.029 425.29 354.07 425.29 310.955Z" fill="white"/>
<path d="M301.617 283.567C301.617 268.449 313.838 256.301 328.932 256.301C343.953 256.301 356.174 268.449 356.174 283.567C356.174 298.637 343.953 310.858 328.932 310.858C313.838 310.858 301.617 298.637 301.617 283.567Z" fill="white"/>
<path d="M381.59 319.378C389.064 319.378 395.175 325.514 395.175 333.036C395.175 340.559 389.064 346.669 381.59 346.669C374.019 346.669 367.908 340.559 367.908 333.036C367.908 325.514 374.019 319.378 381.59 319.378Z" fill="white"/>
<path d="M480.894 310.955C480.894 384.793 421.054 444.682 347.191 444.682C297.625 444.682 254.339 417.757 231.211 377.758H231.236C257.504 407.434 295.896 426.156 338.646 426.156C411.096 426.156 471.083 372.377 480.626 302.556C480.796 305.331 480.894 308.131 480.894 310.955Z" fill="#B2B1B0"/>
<path d="M691.694 320.141C699.193 320.141 705.303 326.227 705.303 333.798C705.303 341.321 699.193 347.432 691.694 347.432C684.099 347.432 678.013 341.321 678.013 333.798C678.013 326.227 684.099 320.141 691.694 320.141Z" fill="white"/>
<path d="M611.77 284.378C611.77 269.284 623.991 257.039 639.012 257.039C654.106 257.039 666.327 269.284 666.327 284.378C666.327 299.423 654.106 311.62 639.012 311.62C623.991 311.62 611.77 299.423 611.77 284.378Z" fill="white"/>
<path d="M735.418 311.669C735.418 354.808 700.434 389.816 657.271 389.816C614.107 389.816 579.172 354.808 579.172 311.669C579.172 268.554 614.107 233.594 657.271 233.594C700.435 233.594 735.418 268.554 735.418 311.669ZM705.303 333.798C705.303 326.227 699.193 320.141 691.694 320.141C684.099 320.141 678.013 326.227 678.013 333.798C678.013 341.321 684.099 347.432 691.694 347.432C699.193 347.432 705.303 341.321 705.303 333.798ZM639.012 257.038C623.991 257.038 611.77 269.284 611.77 284.378C611.77 299.423 623.991 311.62 639.012 311.62C654.106 311.62 666.327 299.423 666.327 284.378C666.327 269.284 654.106 257.038 639.012 257.038Z" fill="#063E51"/>
<path d="M791.095 311.669C791.095 385.604 731.206 445.444 657.271 445.444C607.753 445.444 564.516 418.568 541.389 378.569L541.413 378.544C567.632 408.197 606.049 426.918 648.799 426.918C721.25 426.918 781.163 373.164 790.827 303.343C790.998 306.094 791.095 308.869 791.095 311.669Z" fill="#B2B1B0"/>
<path d="M735.418 311.669C735.418 268.554 700.434 233.594 657.271 233.594C614.107 233.594 579.172 268.554 579.172 311.669C579.172 354.808 614.107 389.816 657.271 389.816C700.435 389.816 735.418 354.808 735.418 311.669ZM523.495 311.669C523.495 237.806 583.384 177.893 657.271 177.893C728.407 177.893 786.542 233.351 790.827 303.343C781.163 373.164 721.25 426.918 648.799 426.918C606.049 426.918 567.632 408.197 541.413 378.544L541.389 378.569C530.019 358.898 523.495 336.062 523.495 311.669Z" fill="white"/>
<path d="M373.584 494.286H629.754C624.511 538.169 597.271 575.31 559.363 594.292C558.687 593.324 557.938 592.373 557.08 591.442C547.872 581.339 528.488 574.196 505.706 573.428L501.669 577.648L497.631 573.428C474.813 574.196 455.412 581.357 446.222 591.46C445.363 592.373 444.596 593.324 443.938 594.292C406.03 575.292 378.79 538.169 373.584 494.286Z" fill="#1E1F1D"/>
<path d="M446.222 591.46C446.971 591.826 469.716 603.152 501.669 603.152C533.603 603.152 556.331 591.826 557.08 591.442C557.938 592.373 558.687 593.324 559.363 594.292C542.007 603.006 522.404 607.902 501.669 607.902C480.915 607.902 461.312 603.006 443.938 594.292C444.596 593.324 445.363 592.373 446.222 591.46Z" fill="#B01C1C"/>
<path d="M446.222 591.46C455.412 581.357 474.813 574.196 497.631 573.428L501.669 577.648L505.706 573.428C528.488 574.196 547.872 581.339 557.08 591.442C556.331 591.826 533.603 603.152 501.669 603.152C469.716 603.152 446.971 591.826 446.222 591.46Z" fill="#E52923"/>
</g>
</g>
<defs>
<filter id="filter0_d_1_217" x="-4" y="0" width="1008" height="1008" filterUnits="userSpaceOnUse" color-interpolation-filters="sRGB">
<feFlood flood-opacity="0" result="BackgroundImageFix"/>
<feColorMatrix in="SourceAlpha" type="matrix" values="0 0 0 0 0 0 0 0 0 0 0 0 0 0 0 0 0 0 127 0" result="hardAlpha"/>
<feOffset dy="4"/>
<feGaussianBlur stdDeviation="2"/>
<feComposite in2="hardAlpha" operator="out"/>
<feColorMatrix type="matrix" values="0 0 0 0 0 0 0 0 0 0 0 0 0 0 0 0 0 0 0.25 0"/>
<feBlend mode="normal" in2="BackgroundImageFix" result="effect1_dropShadow_1_217"/>
<feBlend mode="normal" in="SourceGraphic" in2="effect1_dropShadow_1_217" result="shape"/>
</filter>
<clipPath id="clip0_1_217">
<rect width="582.173" height="964.09" fill="white" transform="translate(208.922 21)"/>
</clipPath>
</defs>
</svg>
