<svg width="1000" height="1000" viewBox="0 0 1000 1000" fill="none" xmlns="http://www.w3.org/2000/svg">
<g filter="url(#filter0_d_1_78)">
<g clip-path="url(#clip0_1_78)">
<path d="M685.165 95.9947L710.916 156.492H710.935C710.659 160.218 709.54 162.769 707.558 163.577C702.106 165.816 692.14 154.161 685.33 137.531L681.09 128.317L678.905 123.508L676.116 117.157L664.553 91.167L689.68 74.0425L695.608 69.9673L700.124 66.8286L709.025 60.5884L727.711 47.5933L755.06 29L770.881 42.5274L778.976 49.3921L782.776 52.6221L785.473 54.8247L806.911 72.6104L828.314 90.3965L833.673 94.8379L836.426 97.1143L840.739 100.84L858.286 115.854L855.001 135.347L853.386 144.946L852.505 150.894L848.907 174.645L845.31 198.395L843.511 210.234L840.151 230.259L829.029 240.52L826.275 243.126L824.697 244.558L821.632 247.531L809.279 259.296L784.647 282.864L735.347 329.98C730.226 335.229 724.683 340.589 718.79 345.802C692.14 369.259 664.662 354.906 662.625 332.513L801.405 217.539L833.654 129.969L749.608 56.3301L685.165 95.9947Z" fill="#94C128"/>
<path d="M710.916 156.492L685.165 95.9947L749.608 56.3301L833.654 129.969L801.405 217.539L662.625 332.513C661.671 322.308 666.021 310.414 678.172 299.695C684.101 294.519 690.103 289.691 695.957 285.305L748.91 242.318L775.434 220.843L788.648 210.105L791.952 207.408L793.641 206.067C793.788 205.976 793.88 205.884 794.026 205.792L795.696 204.819L796.138 203.608L796.412 202.966L796.56 202.617L796.816 201.259L799.588 189.567L805.095 166.183L810.619 142.781L811.996 136.962C812.161 136.338 812.161 136.43 812.216 136.209L812.345 135.751L812.638 134.778L813.923 130.74L810.803 127.143L809.941 126.206L807.572 123.838L802.562 118.993L782.665 99.5738L762.731 80.0992L760.254 77.6763L759.703 77.1441L759.482 76.8321L758.877 76.2818L756.619 73.8218L751.792 68.7559L742.358 73.73C741.862 73.9873 739.88 75.1621 738.394 76.0064L733.713 78.7959L724.26 84.2657L714.808 89.8091L710.072 92.562L708.879 93.2598L708.182 93.6265L706.823 94.3975L695.113 100.84L698.931 112.312L699.977 115.359L701.61 119.892L705.062 129.437C709.411 139.991 711.431 150.012 710.935 156.492H710.916Z" fill="#74922B"/>
<path d="M198.619 269.622L337.381 384.614H337.399C338.354 374.409 334.003 362.533 321.853 351.814C315.887 346.565 309.959 341.775 304.03 337.387L251.059 294.401L224.591 272.907L211.376 262.188L208.054 259.49L206.365 258.15C206.218 258.021 206.145 257.967 205.998 257.875L204.309 256.902L203.832 255.69L203.612 255.066L203.465 254.736L203.171 253.323L200.418 241.668L194.912 218.266L189.423 194.881L188.01 189.045C187.863 188.42 187.863 188.476 187.808 188.292L187.643 187.834L187.368 186.86L186.046 182.822L189.203 179.243L190.047 178.252L192.452 175.921L197.426 171.076L217.359 151.638L237.274 132.182L239.734 129.759L240.303 129.227L240.542 128.915L241.11 128.327L243.368 125.904L248.177 120.839L257.629 125.813C258.162 126.051 260.144 127.245 261.631 128.107L266.348 130.879L275.764 136.385L285.198 141.91L289.915 144.645L291.127 145.36L291.788 145.746L293.201 146.48L304.838 152.923L301.075 164.395L300.029 167.441L298.396 171.975L294.945 181.519C290.613 192.055 288.576 202.058 289.071 208.538L314.859 148.077L250.398 108.394L166.352 182.052L198.619 269.622Z" fill="#74922B"/>
<path d="M337.381 384.614L198.619 269.622L166.352 182.052L250.398 108.394L314.859 148.077L289.071 208.538C289.347 212.3 290.466 214.852 292.467 215.677C297.936 217.916 307.866 206.225 314.694 189.632L318.897 180.399L321.119 175.591L323.908 169.24L335.454 143.249L310.326 126.125L304.397 122.05L299.937 118.912L290.943 112.634L272.276 99.6758L244.965 81.0826L229.143 94.5913L221.03 101.475L217.249 104.705L214.551 106.944L193.149 124.693L171.711 142.479L166.333 146.921L163.58 149.215L159.267 152.923L141.701 167.937L144.987 187.43L146.602 197.029L147.556 202.994L151.099 226.727L154.66 250.478L156.458 262.354L159.835 282.36L170.958 292.62L173.749 295.171L175.327 296.64L178.374 299.613L190.708 311.397L215.395 334.928L264.659 382.026C269.762 387.349 275.305 392.635 281.252 397.848C307.885 421.323 335.343 406.97 337.399 384.614H337.381Z" fill="#94C128"/>
<path d="M423.832 284.086C423.832 284.086 846.545 159.902 772.521 501.415C698.48 842.952 662.666 926.52 753.42 924.148C844.164 921.75 834.611 967.129 686.535 981.461C538.471 995.789 669.828 799.951 536.084 809.518C402.33 819.074 361.744 864.425 361.744 914.587C361.744 964.751 354.565 982.228 294.863 982.228C235.157 982.228 168.28 979.075 235.157 938.477C302.03 897.879 306.804 885.935 280.526 730.684C254.257 575.46 99.0288 367.673 423.832 284.086Z" fill="#59AE33"/>
<path d="M735.85 606.583C731.459 627.377 720.652 646.729 707.242 636.816C685.394 620.663 712.264 553.189 732.5 568.382C738.795 573.093 739.285 590.291 735.85 606.583Z" fill="#499834"/>
<path d="M751.94 531.799C749.738 542.21 744.324 551.881 737.621 546.92C726.687 538.836 740.131 505.079 750.262 512.676C753.412 515.03 753.658 523.643 751.94 531.799Z" fill="#499834"/>
<path d="M703.754 549.258C702.574 554.837 699.67 560.037 696.072 557.372C690.211 553.053 697.424 534.916 702.854 539.013C704.551 540.27 704.678 544.886 703.754 549.258Z" fill="#499834"/>
<path d="M682.777 590.962C680.928 599.688 676.402 607.812 670.775 603.632C661.607 596.868 672.879 568.565 681.363 574.932C684.01 576.912 684.211 584.116 682.777 590.962Z" fill="#499834"/>
<path d="M686.574 622.779C685.83 626.277 684.016 629.525 681.766 627.864C678.086 625.148 682.613 613.791 686.008 616.355C687.08 617.153 687.145 620.037 686.574 622.779Z" fill="#499834"/>
<path d="M670.275 548.896C669.531 552.381 667.711 555.63 665.461 553.967C661.779 551.251 666.301 539.907 669.703 542.458C670.77 543.256 670.844 546.141 670.275 548.896Z" fill="#499834"/>
<path d="M764.063 492.004C762.861 497.703 759.904 502.985 756.24 500.274C750.268 495.865 757.619 477.412 763.141 481.585C764.859 482.862 764.996 487.564 764.063 492.004Z" fill="#499834"/>
<path d="M727.356 502.92C725.119 513.527 719.617 523.376 712.793 518.323C701.644 510.094 715.35 475.7 725.646 483.433C728.863 485.861 729.106 494.611 727.356 502.92Z" fill="#499834"/>
<path d="M723.275 666.168C722.068 671.854 719.111 677.136 715.451 674.435C709.481 670.016 716.826 651.576 722.354 655.728C724.084 657.023 724.209 661.721 723.275 666.168Z" fill="#499834"/>
<path d="M365.718 750.213C372.47 745.119 379.198 740.269 385.725 735.689C534.697 631.782 634.558 657.02 672.693 674.164C684.166 679.362 690.053 683.772 690.053 683.772C718.942 605.962 721.375 574.349 716.566 542.135L677.646 603.473L635.09 554.296L606.104 614.152L563.606 564.967L526.684 626.007L486.772 576.436L455.191 636.618L415.28 587.047L386.362 646.952L346.451 597.381L328.105 655.648L280.846 607.174C289.709 666.548 321.419 716.742 365.668 750.281L365.718 750.213Z" fill="#1E1F1D"/>
<path d="M672.693 674.164C634.558 657.02 534.697 631.782 385.725 735.689C385.725 735.689 452.942 777.758 535.125 765.491C617.308 753.224 672.693 674.164 672.693 674.164Z" fill="#E62A46"/>
<path d="M690.053 683.772C690.053 683.772 684.166 679.362 672.693 674.164C672.693 674.164 617.308 753.224 535.125 765.491C452.942 777.758 385.725 735.689 385.725 735.689C379.198 740.269 372.47 745.119 365.718 750.213L365.668 750.281C411.327 784.812 470.215 801.682 531.234 792.574C591.373 783.597 642.226 751.066 675.783 705.733C680.984 698.707 685.721 691.389 690.053 683.772Z" fill="#CD163B"/>
<path d="M334.698 447.367C334.698 433.557 345.839 422.46 359.627 422.46C373.37 422.46 384.511 433.557 384.511 447.367C384.511 461.132 373.37 472.296 359.627 472.296C345.839 472.296 334.698 461.132 334.698 447.367Z" fill="white"/>
<path d="M376.306 400.978C415.689 400.978 447.668 432.934 447.668 472.385C447.668 511.769 415.689 543.703 376.306 543.703C336.877 543.703 304.898 511.769 304.898 472.385C304.898 432.934 336.877 400.978 376.306 400.978ZM420.137 492.555C420.137 485.683 414.555 480.079 407.706 480.079C400.79 480.079 395.23 485.683 395.23 492.555C395.23 499.426 400.79 505.008 407.706 505.008C414.555 505.008 420.137 499.426 420.137 492.555ZM359.627 422.46C345.839 422.46 334.698 433.557 334.698 447.367C334.698 461.132 345.839 472.296 359.627 472.296C373.37 472.296 384.511 461.132 384.511 447.367C384.511 433.557 373.37 422.46 359.627 422.46Z" fill="#063E51"/>
<path d="M447.668 472.385C447.668 432.934 415.689 400.978 376.306 400.978C336.877 400.978 304.898 432.934 304.898 472.385C304.898 511.769 336.877 543.703 376.306 543.703C415.689 543.703 447.668 511.769 447.668 472.385ZM376.306 350.142C441.197 350.142 494.257 400.755 498.193 464.712C489.476 528.492 434.703 577.616 368.522 577.616C329.45 577.616 294.38 560.515 270.385 533.406H270.363C259.977 515.46 254.04 494.623 254.04 472.385C254.04 404.847 308.79 350.142 376.306 350.142Z" fill="white"/>
<path d="M498.193 464.712C498.349 467.248 498.438 469.805 498.438 472.385C498.438 539.833 443.776 594.539 376.306 594.539C331.028 594.539 291.511 569.944 270.363 533.406H270.385C294.38 560.515 329.45 577.616 368.522 577.616C434.703 577.616 489.476 528.492 498.193 464.712Z" fill="#B2B1B0"/>
<path d="M395.23 492.555C395.23 485.683 400.79 480.079 407.706 480.079C414.555 480.079 420.137 485.683 420.137 492.555C420.137 499.426 414.555 505.008 407.706 505.008C400.79 505.008 395.23 499.426 395.23 492.555Z" fill="white"/>
<path d="M623.613 351.719C660.406 351.719 690.227 381.519 690.227 418.27C690.227 455.042 660.406 484.883 623.613 484.883C586.821 484.883 557.042 455.042 557.042 418.27C557.042 381.519 586.821 351.719 623.613 351.719ZM631.312 395.007C631.312 382.141 620.896 371.703 608.05 371.703C595.246 371.703 584.808 382.141 584.808 395.007C584.808 407.832 595.246 418.229 608.05 418.229C620.896 418.229 631.312 407.832 631.312 395.007ZM652.957 425.492C646.482 425.492 641.294 430.68 641.294 437.133C641.294 443.545 646.482 448.754 652.957 448.754C659.327 448.754 664.557 443.545 664.557 437.133C664.557 430.68 659.327 425.492 652.957 425.492Z" fill="#063E51"/>
<path d="M616.393 516.509C678.129 516.509 729.178 470.73 737.438 411.256C737.604 413.58 737.665 415.925 737.665 418.27C737.665 481.293 686.637 532.301 623.613 532.301C581.404 532.301 544.55 509.391 524.815 475.296L524.856 475.275C547.206 500.551 579.952 516.509 616.393 516.509Z" fill="#B2B1B0"/>
<path d="M608.05 371.703C620.896 371.703 631.312 382.141 631.312 395.007C631.312 407.832 620.896 418.229 608.05 418.229C595.246 418.229 584.808 407.832 584.808 395.007C584.808 382.141 595.246 371.703 608.05 371.703Z" fill="white"/>
<path d="M641.294 437.133C641.294 430.68 646.482 425.492 652.957 425.492C659.327 425.492 664.557 430.68 664.557 437.133C664.557 443.545 659.327 448.754 652.957 448.754C646.482 448.754 641.294 443.545 641.294 437.133Z" fill="white"/>
<path d="M509.562 418.27C509.562 355.309 560.632 304.239 623.613 304.239C684.271 304.239 733.826 351.553 737.438 411.256C729.178 470.73 678.129 516.509 616.393 516.509C579.952 516.509 547.206 500.551 524.856 475.275L524.815 475.296C515.124 458.528 509.562 439.042 509.562 418.27ZM690.227 418.27C690.227 381.519 660.406 351.719 623.613 351.719C586.821 351.719 557.042 381.519 557.042 418.27C557.042 455.042 586.821 484.883 623.613 484.883C660.406 484.883 690.227 455.042 690.227 418.27Z" fill="white"/>
</g>
</g>
<defs>
<filter id="filter0_d_1_78" x="-4" y="0" width="1008" height="1008" filterUnits="userSpaceOnUse" color-interpolation-filters="sRGB">
<feFlood flood-opacity="0" result="BackgroundImageFix"/>
<feColorMatrix in="SourceAlpha" type="matrix" values="0 0 0 0 0 0 0 0 0 0 0 0 0 0 0 0 0 0 127 0" result="hardAlpha"/>
<feOffset dy="4"/>
<feGaussianBlur stdDeviation="2"/>
<feComposite in2="hardAlpha" operator="out"/>
<feColorMatrix type="matrix" values="0 0 0 0 0 0 0 0 0 0 0 0 0 0 0 0 0 0 0.25 0"/>
<feBlend mode="normal" in2="BackgroundImageFix" result="effect1_dropShadow_1_78"/>
<feBlend mode="normal" in="SourceGraphic" in2="effect1_dropShadow_1_78" result="shape"/>
</filter>
<clipPath id="clip0_1_78">
<rect width="716.585" height="953.228" fill="white" transform="translate(141.701 29)"/>
</clipPath>
</defs>
</svg>
